{"glyphs":{"0":{"ha":951,"x_min":0,"x_max":0,"o":"m 475 -21 b 69 488 236 -21 69 189 b 475 994 69 785 236 994 b 882 488 714 994 882 785 b 475 -21 882 189 714 -21 m 257 488 b 475 154 257 292 347 154 b 694 488 604 154 694 292 b 475 819 694 682 604 819 b 257 488 347 819 257 682 "},"1":{"ha":456,"x_min":0,"x_max":0,"o":"m 14 885 b 103 972 14 933 54 972 l 299 972 b 386 885 347 972 386 933 l 386 28 b 358 0 386 13 374 0 l 226 0 b 199 28 211 0 199 13 l 199 794 l 103 794 b 14 885 54 794 14 833 "},"2":{"ha":763,"x_min":0,"x_max":0,"o":"m 511 708 b 381 819 511 774 457 819 b 238 768 328 819 278 806 b 96 719 188 722 144 694 b 93 882 49 743 35 821 b 381 994 165 958 279 994 b 699 704 567 994 699 875 b 543 403 699 610 656 514 l 313 178 l 639 178 b 726 88 688 178 726 139 b 639 0 726 39 688 0 l 125 0 b 36 88 71 0 36 33 b 100 204 36 124 54 158 l 429 539 b 511 708 488 599 511 650 "},"3":{"ha":778,"x_min":0,"x_max":0,"o":"m 364 578 b 518 708 454 578 518 631 b 381 819 518 774 461 819 b 231 765 335 819 288 810 b 114 736 201 743 163 711 b 111 899 67 760 51 839 b 381 994 176 963 286 994 b 706 708 571 994 706 876 b 583 500 706 628 656 542 b 722 278 665 456 722 364 b 381 -8 722 110 581 -8 b 93 104 279 -8 165 28 b 96 267 35 165 49 243 b 219 235 144 292 188 264 b 381 167 278 181 328 167 b 535 285 475 167 535 211 b 364 415 535 364 469 415 l 322 415 b 239 497 267 415 239 456 b 322 578 239 538 267 578 l 364 578 "},"4":{"ha":807,"x_min":0,"x_max":0,"o":"m 550 411 l 550 514 b 644 607 550 565 592 607 b 738 514 696 607 738 565 l 738 28 b 710 0 738 13 725 0 l 578 0 b 550 28 563 0 550 13 l 550 233 l 126 233 b 50 321 79 233 50 267 b 90 421 50 346 69 382 l 367 932 b 506 972 397 988 461 1001 b 522 829 551 944 554 886 l 289 411 "},"5":{"ha":792,"x_min":0,"x_max":0,"o":"m 350 633 b 736 319 571 633 736 529 b 381 -8 736 140 614 -8 b 93 104 279 -8 165 28 b 96 267 35 165 49 243 b 219 235 144 292 188 264 b 381 167 278 181 328 167 b 549 319 500 167 549 239 b 350 471 549 425 456 471 l 163 471 b 97 539 126 471 97 501 l 97 885 b 185 972 97 933 136 972 l 592 972 b 681 885 640 972 681 933 b 592 794 681 833 640 794 l 285 794 l 285 633 l 350 633 "},"6":{"ha":813,"x_min":0,"x_max":0,"o":"m 393 951 b 518 972 418 990 476 1000 b 539 851 557 944 565 889 l 390 643 b 458 651 413 649 435 651 b 757 319 604 651 757 540 b 404 -21 757 119 611 -21 b 56 319 200 -21 56 119 b 138 568 56 413 89 493 l 393 951 m 242 318 b 404 142 242 214 308 142 b 571 318 503 142 571 214 b 404 492 571 421 503 492 b 242 318 308 492 242 421 "},"7":{"ha":792,"x_min":0,"x_max":0,"o":"m 119 794 b 31 885 71 794 31 833 b 119 972 31 933 71 972 l 681 972 b 757 885 728 972 757 939 b 717 785 757 860 738 824 l 310 39 b 171 -1 279 -17 215 -31 b 154 142 125 26 122 85 l 518 794 l 119 794 "},"8":{"ha":758,"x_min":0,"x_max":0,"o":"m 379 592 b 254 706 306 590 254 639 b 379 817 254 771 306 817 b 504 706 453 817 504 771 b 379 592 504 639 453 590 m 36 278 b 379 -8 36 110 178 -8 b 722 278 581 -8 722 110 b 583 514 722 369 665 467 b 692 711 647 554 692 638 b 379 992 692 876 563 992 b 67 711 196 992 67 876 b 175 514 67 638 111 554 b 36 278 93 467 36 369 m 224 294 b 379 429 224 374 288 429 b 535 294 471 429 535 374 b 379 167 535 219 471 167 b 224 294 288 167 224 219 "},"9":{"ha":813,"x_min":0,"x_max":0,"o":"m 419 15 b 294 -6 394 -24 336 -33 b 274 115 256 22 247 78 l 422 324 b 354 315 400 318 378 315 b 56 647 208 315 56 426 b 408 988 56 847 201 988 b 757 647 613 988 757 847 b 675 399 757 554 724 474 l 419 15 m 242 649 b 408 475 242 546 310 475 b 571 649 504 475 571 546 b 408 825 571 753 504 825 b 242 649 310 825 242 753 "}," ":{"ha":306,"x_min":0,"x_max":0,"o":""},"A":{"ha":1060,"x_min":0,"x_max":0,"o":"m 422 906 b 531 978 443 954 486 978 b 638 906 574 978 617 954 l 1015 38 b 997 0 1024 17 1015 0 l 844 0 b 804 22 828 0 813 1 l 738 189 l 324 189 l 256 22 b 215 0 247 1 232 0 l 63 0 b 44 38 44 0 36 17 l 422 906 m 669 357 l 531 700 l 392 357 "},"Á":{"ha":1060,"x_min":0,"x_max":0,"o":"m 422 906 b 531 978 443 954 486 978 b 638 906 574 978 617 954 l 1015 38 b 997 0 1024 17 1015 0 l 844 0 b 804 22 828 0 813 1 l 738 189 l 324 189 l 256 22 b 215 0 247 1 232 0 l 63 0 b 44 38 44 0 36 17 l 422 906 m 669 357 l 531 700 l 392 357 m 432 1092 b 535 1074 456 1060 501 1051 l 694 1186 b 713 1289 726 1208 735 1256 b 610 1307 689 1321 643 1329 l 450 1194 b 432 1092 417 1172 410 1125 "},"Â":{"ha":1060,"x_min":0,"x_max":0,"o":"m 422 906 b 531 978 443 954 486 978 b 638 906 574 978 617 954 l 1015 38 b 997 0 1024 17 1015 0 l 844 0 b 804 22 828 0 813 1 l 738 189 l 324 189 l 256 22 b 215 0 247 1 232 0 l 63 0 b 44 38 44 0 36 17 l 422 906 m 311 1092 b 329 1194 289 1125 296 1171 l 489 1307 b 531 1319 501 1315 517 1319 b 572 1307 544 1319 560 1315 l 732 1194 b 750 1092 765 1172 772 1125 b 647 1074 726 1060 681 1051 l 531 1156 l 414 1074 b 311 1092 381 1050 335 1060 m 669 357 l 531 700 l 392 357 "},"Ä":{"ha":1060,"x_min":0,"x_max":0,"o":"m 422 906 b 531 978 443 954 486 978 b 638 906 574 978 617 954 l 1015 38 b 997 0 1024 17 1015 0 l 844 0 b 804 22 828 0 813 1 l 738 189 l 324 189 l 256 22 b 215 0 247 1 232 0 l 63 0 b 44 38 44 0 36 17 l 422 906 m 301 1172 b 397 1268 301 1226 343 1268 b 493 1172 451 1268 493 1226 b 397 1078 493 1119 451 1078 b 301 1172 343 1078 301 1119 m 669 357 l 531 700 l 392 357 m 569 1172 b 665 1268 569 1226 611 1268 b 760 1172 718 1268 760 1226 b 665 1078 760 1119 718 1078 b 569 1172 611 1078 569 1119 "},"À":{"ha":1060,"x_min":0,"x_max":0,"o":"m 422 906 b 531 978 443 954 486 978 b 638 906 574 978 617 954 l 1015 38 b 997 0 1024 17 1015 0 l 844 0 b 804 22 828 0 813 1 l 738 189 l 324 189 l 256 22 b 215 0 247 1 232 0 l 63 0 b 44 38 44 0 36 17 l 422 906 m 333 1303 b 351 1200 311 1269 319 1222 l 511 1088 b 614 1106 544 1065 590 1074 b 596 1208 636 1139 629 1186 l 436 1321 b 333 1303 403 1343 357 1335 m 669 357 l 531 700 l 392 357 "},"Å":{"ha":1060,"x_min":0,"x_max":0,"o":"m 422 906 b 531 978 443 954 486 978 b 638 906 574 978 617 954 l 1015 38 b 997 0 1024 17 1015 0 l 844 0 b 804 22 828 0 813 1 l 738 189 l 324 189 l 256 22 b 215 0 247 1 232 0 l 63 0 b 44 38 44 0 36 17 l 422 906 m 386 1219 b 529 1363 386 1300 449 1363 b 674 1219 611 1363 674 1300 b 529 1078 674 1140 611 1078 b 386 1219 449 1078 386 1140 m 669 357 l 531 700 l 392 357 m 474 1219 b 529 1165 474 1189 499 1165 b 586 1219 561 1165 586 1189 b 529 1275 586 1251 561 1275 b 474 1219 499 1275 474 1251 "},"Ã":{"ha":1060,"x_min":0,"x_max":0,"o":"m 422 906 b 531 978 443 954 486 978 b 638 906 574 978 617 954 l 1015 38 b 997 0 1024 17 1015 0 l 844 0 b 804 22 828 0 813 1 l 738 189 l 324 189 l 256 22 b 215 0 247 1 232 0 l 63 0 b 44 38 44 0 36 17 l 422 906 m 269 1163 b 421 1301 282 1242 343 1301 b 561 1249 479 1301 524 1272 b 640 1214 592 1229 615 1214 b 679 1249 661 1214 671 1224 b 738 1296 688 1275 708 1296 b 793 1229 771 1296 800 1264 b 640 1090 779 1150 718 1090 b 501 1142 582 1090 538 1119 b 421 1178 471 1163 447 1178 b 382 1143 400 1178 390 1168 b 325 1096 371 1114 353 1096 b 269 1163 290 1096 261 1128 m 669 357 l 531 700 l 392 357 "},"Æ":{"ha":1396,"x_min":0,"x_max":0,"o":"m 575 900 b 697 972 606 949 653 972 l 1260 972 b 1347 882 1308 972 1347 933 b 1260 794 1347 833 1308 794 l 867 794 l 867 571 l 1224 571 b 1311 488 1279 571 1311 542 b 1224 403 1311 433 1279 403 l 867 403 l 867 178 l 1260 178 b 1347 90 1308 178 1347 139 b 1260 0 1347 39 1308 0 l 753 0 b 679 74 713 0 679 33 l 679 189 l 354 189 l 257 22 b 213 0 244 1 229 0 l 60 0 b 49 38 42 0 36 17 l 575 900 m 679 357 l 679 747 l 451 357 "},"B":{"ha":874,"x_min":0,"x_max":0,"o":"m 76 879 b 171 972 76 931 118 972 l 467 972 b 782 700 678 972 782 836 b 697 506 782 629 754 558 b 839 274 792 456 839 365 b 524 0 839 136 735 0 l 104 0 b 76 28 89 0 76 13 l 76 879 m 517 178 b 653 294 608 178 653 236 b 517 410 653 351 608 410 l 264 410 l 264 178 m 460 563 b 596 679 551 563 596 621 b 460 794 596 736 551 794 l 264 794 l 264 563 "},"C":{"ha":953,"x_min":0,"x_max":0,"o":"m 58 488 b 561 994 58 785 265 994 b 879 892 686 994 794 957 b 904 729 946 840 946 760 b 757 756 860 696 808 714 b 561 819 704 796 638 819 b 246 488 376 819 246 682 b 561 156 246 293 376 156 b 757 219 638 156 704 179 b 904 246 808 261 860 279 b 879 83 946 215 946 135 b 561 -19 794 18 686 -19 b 58 488 265 -19 58 190 "},"Ç":{"ha":953,"x_min":0,"x_max":0,"o":"m 58 488 b 561 994 58 785 265 994 b 879 892 686 994 794 957 b 904 729 946 840 946 760 b 757 756 860 696 808 714 b 561 819 704 796 638 819 b 246 488 376 819 246 682 b 561 156 246 293 376 156 b 757 219 638 156 704 179 b 904 246 808 261 860 279 b 879 83 946 215 946 135 b 607 -18 806 26 713 -10 l 607 -61 l 611 -61 b 778 -200 703 -61 778 -107 b 622 -344 778 -278 724 -344 b 499 -296 581 -344 531 -329 b 507 -203 467 -261 478 -215 b 575 -217 532 -189 556 -200 b 622 -237 594 -235 607 -237 b 667 -200 650 -237 667 -224 b 611 -162 667 -176 644 -162 l 540 -162 b 496 -117 514 -162 496 -140 l 496 -15 b 58 488 235 13 58 213 "},"D":{"ha":974,"x_min":0,"x_max":0,"o":"m 76 899 b 150 972 76 939 110 972 l 431 972 b 925 486 717 972 925 768 b 431 0 925 204 717 0 l 150 0 b 76 74 110 0 76 33 l 76 899 m 424 178 b 738 486 606 178 738 308 b 424 794 738 664 606 794 l 264 794 l 264 178 "},"Ð":{"ha":1057,"x_min":0,"x_max":0,"o":"m 160 899 b 233 972 160 939 193 972 l 514 972 b 1008 486 800 972 1008 768 b 514 0 1008 204 800 0 l 233 0 b 160 74 193 0 160 33 l 160 408 l 106 408 b 28 486 63 408 28 443 b 106 564 28 529 63 564 l 160 564 l 160 899 m 507 178 b 821 486 689 178 821 308 b 507 794 821 664 689 794 l 347 794 l 347 564 l 463 564 b 540 486 506 564 540 529 b 463 408 540 443 506 408 l 347 408 l 347 178 "},"E":{"ha":793,"x_min":0,"x_max":0,"o":"m 76 899 b 150 972 76 939 110 972 l 657 972 b 744 882 706 972 744 933 b 657 794 744 833 706 794 l 264 794 l 264 571 l 621 571 b 708 488 676 571 708 542 b 621 403 708 433 676 403 l 264 403 l 264 178 l 657 178 b 744 90 706 178 744 139 b 657 0 744 39 706 0 l 150 0 b 76 74 110 0 76 33 l 76 899 "},"É":{"ha":793,"x_min":0,"x_max":0,"o":"m 76 899 b 150 972 76 939 110 972 l 657 972 b 744 882 706 972 744 933 b 657 794 744 833 706 794 l 264 794 l 264 571 l 621 571 b 708 488 676 571 708 542 b 621 403 708 433 676 403 l 264 403 l 264 178 l 657 178 b 744 90 706 178 744 139 b 657 0 744 39 706 0 l 150 0 b 76 74 110 0 76 33 l 76 899 m 299 1092 b 401 1074 322 1060 368 1051 l 561 1186 b 579 1289 593 1208 601 1256 b 476 1307 556 1321 510 1329 l 317 1194 b 299 1092 283 1172 276 1125 "},"Ê":{"ha":793,"x_min":0,"x_max":0,"o":"m 76 899 b 150 972 76 939 110 972 l 657 972 b 744 882 706 972 744 933 b 657 794 744 833 706 794 l 264 794 l 264 571 l 621 571 b 708 488 676 571 708 542 b 621 403 708 433 676 403 l 264 403 l 264 178 l 657 178 b 744 90 706 178 744 139 b 657 0 744 39 706 0 l 150 0 b 76 74 110 0 76 33 l 76 899 m 178 1092 b 196 1194 156 1125 163 1171 l 356 1307 b 397 1319 368 1315 383 1319 b 439 1307 411 1319 426 1315 l 599 1194 b 617 1092 632 1172 639 1125 b 514 1074 593 1060 547 1051 l 397 1156 l 281 1074 b 178 1092 247 1050 201 1060 "},"Ë":{"ha":793,"x_min":0,"x_max":0,"o":"m 76 899 b 150 972 76 939 110 972 l 657 972 b 744 882 706 972 744 933 b 657 794 744 833 706 794 l 264 794 l 264 571 l 621 571 b 708 488 676 571 708 542 b 621 403 708 433 676 403 l 264 403 l 264 178 l 657 178 b 744 90 706 178 744 139 b 657 0 744 39 706 0 l 150 0 b 76 74 110 0 76 33 l 76 899 m 168 1172 b 264 1268 168 1226 210 1268 b 360 1172 318 1268 360 1226 b 264 1078 360 1119 318 1078 b 168 1172 210 1078 168 1119 m 436 1172 b 532 1268 436 1226 478 1268 b 626 1172 585 1268 626 1226 b 532 1078 626 1119 585 1078 b 436 1172 478 1078 436 1119 "},"È":{"ha":793,"x_min":0,"x_max":0,"o":"m 76 899 b 150 972 76 939 110 972 l 657 972 b 744 882 706 972 744 933 b 657 794 744 833 706 794 l 264 794 l 264 571 l 621 571 b 708 488 676 571 708 542 b 621 403 708 433 676 403 l 264 403 l 264 178 l 657 178 b 744 90 706 178 744 139 b 657 0 744 39 706 0 l 150 0 b 76 74 110 0 76 33 l 76 899 m 200 1303 b 218 1200 178 1269 186 1222 l 378 1088 b 481 1106 411 1065 457 1074 b 463 1208 503 1139 496 1186 l 303 1321 b 200 1303 269 1343 224 1335 "},"F":{"ha":793,"x_min":0,"x_max":0,"o":"m 76 899 b 150 972 76 939 110 972 l 657 972 b 744 882 706 972 744 933 b 657 794 744 833 706 794 l 264 794 l 264 571 l 621 571 b 708 488 676 571 708 542 b 621 403 708 433 676 403 l 264 403 l 264 28 b 236 0 264 13 251 0 l 104 0 b 76 28 89 0 76 13 l 76 899 "},"G":{"ha":1065,"x_min":0,"x_max":0,"o":"m 58 488 b 561 994 58 785 265 994 b 879 892 686 994 794 957 b 904 729 946 840 946 760 b 757 756 860 696 808 714 b 561 819 704 796 638 819 b 246 488 376 819 246 682 b 561 156 246 293 376 156 b 825 369 693 156 793 240 l 619 369 b 531 460 571 369 531 408 b 619 547 531 508 571 547 l 935 547 b 1022 460 983 547 1022 508 b 561 -19 1022 179 832 -19 b 58 488 265 -19 58 190 "},"H":{"ha":963,"x_min":0,"x_max":0,"o":"m 76 879 b 171 972 76 931 118 972 b 264 879 222 972 264 931 l 264 571 l 699 571 l 699 879 b 793 972 699 931 740 972 b 886 879 844 972 886 931 l 886 28 b 858 0 886 13 874 0 l 726 0 b 699 28 711 0 699 13 l 699 403 l 264 403 l 264 28 b 236 0 264 13 251 0 l 104 0 b 76 28 89 0 76 13 l 76 879 "},"I":{"ha":340,"x_min":0,"x_max":0,"o":"m 76 879 b 171 972 76 931 118 972 b 264 879 222 972 264 931 l 264 28 b 236 0 264 13 251 0 l 104 0 b 76 28 89 0 76 13 l 76 879 "},"Í":{"ha":340,"x_min":0,"x_max":0,"o":"m 76 879 b 171 972 76 931 118 972 b 264 879 222 972 264 931 l 264 28 b 236 0 264 13 251 0 l 104 0 b 76 28 89 0 76 13 l 76 879 m 72 1092 b 175 1074 96 1060 142 1051 l 335 1186 b 353 1289 367 1208 375 1256 b 250 1307 329 1321 283 1329 l 90 1194 b 72 1092 57 1172 50 1125 "},"Î":{"ha":340,"x_min":0,"x_max":0,"o":"m 76 879 b 171 972 76 931 118 972 b 264 879 222 972 264 931 l 264 28 b 236 0 264 13 251 0 l 104 0 b 76 28 89 0 76 13 l 76 879 m -49 1092 b -31 1194 -71 1125 -64 1171 l 129 1307 b 171 1319 142 1315 157 1319 b 213 1307 185 1319 200 1315 l 372 1194 b 390 1092 406 1172 413 1125 b 288 1074 367 1060 321 1051 l 171 1156 l 54 1074 b -49 1092 21 1050 -25 1060 "},"Ï":{"ha":340,"x_min":0,"x_max":0,"o":"m 76 879 b 171 972 76 931 118 972 b 264 879 222 972 264 931 l 264 28 b 236 0 264 13 251 0 l 104 0 b 76 28 89 0 76 13 l 76 879 m -58 1172 b 38 1268 -58 1226 -17 1268 b 133 1172 92 1268 133 1226 b 38 1078 133 1119 92 1078 b -58 1172 -17 1078 -58 1119 m 210 1172 b 306 1268 210 1226 251 1268 b 400 1172 358 1268 400 1226 b 306 1078 400 1119 358 1078 b 210 1172 251 1078 210 1119 "},"Ì":{"ha":340,"x_min":0,"x_max":0,"o":"m 76 879 b 171 972 76 931 118 972 b 264 879 222 972 264 931 l 264 28 b 236 0 264 13 251 0 l 104 0 b 76 28 89 0 76 13 l 76 879 m -26 1303 b -8 1200 -49 1269 -40 1222 l 151 1088 b 254 1106 185 1065 231 1074 b 236 1208 276 1139 269 1186 l 76 1321 b -26 1303 43 1343 -3 1335 "},"J":{"ha":736,"x_min":0,"x_max":0,"o":"m 332 153 b 472 332 418 153 472 218 l 472 879 b 567 972 472 931 514 972 b 660 879 618 972 660 931 l 660 331 b 332 -22 660 114 533 -22 b 86 53 235 -22 151 3 b 61 215 19 104 19 185 b 208 189 106 249 157 231 b 332 153 242 164 283 153 "},"K":{"ha":853,"x_min":0,"x_max":0,"o":"m 76 879 b 171 972 76 931 118 972 b 264 879 222 972 264 931 l 264 590 l 632 951 b 749 951 664 982 718 983 b 750 833 781 917 783 865 l 489 578 l 801 138 b 776 14 832 97 817 44 b 654 33 739 -15 682 -6 l 358 450 l 264 357 l 264 28 b 236 0 264 13 251 0 l 104 0 b 76 28 89 0 76 13 l 76 879 "},"L":{"ha":793,"x_min":0,"x_max":0,"o":"m 76 879 b 171 972 76 931 118 972 b 264 879 222 972 264 931 l 264 178 l 657 178 b 744 90 706 178 744 139 b 657 0 744 39 706 0 l 150 0 b 76 74 110 0 76 33 l 76 879 "},"Ł":{"ha":879,"x_min":0,"x_max":0,"o":"m 163 879 b 257 972 163 931 204 972 b 350 879 308 972 350 931 l 350 597 l 414 621 b 514 574 456 635 500 614 b 468 475 529 533 508 489 l 350 432 l 350 178 l 743 178 b 831 90 792 178 831 139 b 743 0 831 39 792 0 l 236 0 b 163 74 196 0 163 33 l 163 364 l 132 353 b 33 399 92 338 47 358 b 79 499 18 439 39 483 l 163 529 l 163 879 "},"M":{"ha":1121,"x_min":0,"x_max":0,"o":"m 111 879 b 213 972 115 931 153 972 b 325 896 274 972 311 932 l 561 281 l 796 896 b 908 972 810 932 847 972 b 1010 879 968 972 1006 931 l 1085 28 b 1060 0 1086 13 1075 0 l 928 0 b 897 28 913 0 899 13 l 856 601 l 653 56 b 561 -3 638 14 629 -3 b 469 56 494 -3 485 14 l 265 601 l 224 28 b 193 0 222 13 208 0 l 61 0 b 36 28 46 0 35 13 l 111 879 "},"N":{"ha":963,"x_min":0,"x_max":0,"o":"m 76 879 b 172 972 76 931 113 972 b 286 896 226 972 260 932 l 713 325 l 713 879 b 807 972 713 931 754 972 b 900 879 858 972 900 931 l 900 28 b 872 0 900 13 888 0 l 778 0 b 717 32 746 0 729 15 l 264 638 l 264 28 b 236 0 264 13 251 0 l 104 0 b 76 28 89 0 76 13 l 76 879 "},"Ñ":{"ha":963,"x_min":0,"x_max":0,"o":"m 76 879 b 172 972 76 931 113 972 b 286 896 226 972 260 932 l 713 325 l 713 879 b 807 972 713 931 754 972 b 900 879 858 972 900 931 l 900 28 b 872 0 900 13 888 0 l 778 0 b 717 32 746 0 729 15 l 264 638 l 264 28 b 236 0 264 13 251 0 l 104 0 b 76 28 89 0 76 13 l 76 879 m 221 1163 b 372 1301 233 1242 294 1301 b 513 1249 431 1301 475 1272 b 592 1214 543 1229 567 1214 b 631 1249 613 1214 622 1224 b 689 1296 639 1275 660 1296 b 744 1229 722 1296 751 1264 b 592 1090 731 1150 669 1090 b 453 1142 533 1090 489 1119 b 372 1178 422 1163 399 1178 b 333 1143 351 1178 342 1168 b 276 1096 322 1114 304 1096 b 221 1163 242 1096 213 1128 "},"O":{"ha":1124,"x_min":0,"x_max":0,"o":"m 561 -21 b 58 488 265 -21 58 189 b 561 994 58 785 265 994 b 1065 488 857 994 1065 785 b 561 -21 1065 189 857 -21 m 246 488 b 561 154 246 292 376 154 b 878 488 747 154 878 292 b 561 819 878 682 747 819 b 246 488 376 819 246 682 "},"Ó":{"ha":1124,"x_min":0,"x_max":0,"o":"m 561 -21 b 58 488 265 -21 58 189 b 561 994 58 785 265 994 b 1065 488 857 994 1065 785 b 561 -21 1065 189 857 -21 m 246 488 b 561 154 246 292 376 154 b 878 488 747 154 878 292 b 561 819 878 682 747 819 b 246 488 376 819 246 682 m 464 1092 b 567 1074 488 1060 533 1051 l 726 1186 b 744 1289 758 1208 767 1256 b 642 1307 721 1321 675 1329 l 482 1194 b 464 1092 449 1172 442 1125 "},"Ô":{"ha":1124,"x_min":0,"x_max":0,"o":"m 561 -21 b 58 488 265 -21 58 189 b 561 994 58 785 265 994 b 1065 488 857 994 1065 785 b 561 -21 1065 189 857 -21 m 246 488 b 561 154 246 292 376 154 b 878 488 747 154 878 292 b 561 819 878 682 747 819 b 246 488 376 819 246 682 m 343 1092 b 361 1194 321 1125 328 1171 l 521 1307 b 563 1319 533 1315 549 1319 b 604 1307 576 1319 592 1315 l 764 1194 b 782 1092 797 1172 804 1125 b 679 1074 758 1060 713 1051 l 563 1156 l 446 1074 b 343 1092 413 1050 367 1060 "},"Ö":{"ha":1124,"x_min":0,"x_max":0,"o":"m 561 -21 b 58 488 265 -21 58 189 b 561 994 58 785 265 994 b 1065 488 857 994 1065 785 b 561 -21 1065 189 857 -21 m 246 488 b 561 154 246 292 376 154 b 878 488 747 154 878 292 b 561 819 878 682 747 819 b 246 488 376 819 246 682 m 333 1172 b 429 1268 333 1226 375 1268 b 525 1172 483 1268 525 1226 b 429 1078 525 1119 483 1078 b 333 1172 375 1078 333 1119 m 601 1172 b 697 1268 601 1226 643 1268 b 792 1172 750 1268 792 1226 b 697 1078 792 1119 750 1078 b 601 1172 643 1078 601 1119 "},"Ò":{"ha":1124,"x_min":0,"x_max":0,"o":"m 561 -21 b 58 488 265 -21 58 189 b 561 994 58 785 265 994 b 1065 488 857 994 1065 785 b 561 -21 1065 189 857 -21 m 246 488 b 561 154 246 292 376 154 b 878 488 747 154 878 292 b 561 819 878 682 747 819 b 246 488 376 819 246 682 m 365 1303 b 383 1200 343 1269 351 1222 l 543 1088 b 646 1106 576 1065 622 1074 b 628 1208 668 1139 661 1186 l 468 1321 b 365 1303 435 1343 389 1335 "},"Ø":{"ha":1124,"x_min":0,"x_max":0,"o":"m 561 -21 b 274 61 450 -21 353 8 l 229 11 b 131 0 201 -21 160 -25 b 129 100 101 25 101 68 l 174 150 b 58 488 100 238 58 353 b 561 994 58 785 265 994 b 851 913 672 994 771 965 l 894 961 b 993 972 922 993 964 997 b 994 872 1022 947 1022 904 l 951 824 b 1065 488 1024 736 1065 621 b 561 -21 1065 189 857 -21 m 246 488 b 300 292 246 413 265 346 l 729 775 b 561 819 682 804 625 819 b 246 488 376 819 246 682 m 396 199 b 561 154 443 169 499 154 b 878 488 747 154 878 292 b 825 681 878 563 858 628 l 396 199 "},"Õ":{"ha":1124,"x_min":0,"x_max":0,"o":"m 561 -21 b 58 488 265 -21 58 189 b 561 994 58 785 265 994 b 1065 488 857 994 1065 785 b 561 -21 1065 189 857 -21 m 246 488 b 561 154 246 292 376 154 b 878 488 747 154 878 292 b 561 819 878 682 747 819 b 246 488 376 819 246 682 m 301 1163 b 453 1301 314 1242 375 1301 b 593 1249 511 1301 556 1272 b 672 1214 624 1229 647 1214 b 711 1249 693 1214 703 1224 b 769 1296 719 1275 740 1296 b 825 1229 803 1296 832 1264 b 672 1090 811 1150 750 1090 b 533 1142 614 1090 569 1119 b 453 1178 503 1163 479 1178 b 414 1143 432 1178 422 1168 b 357 1096 403 1114 385 1096 b 301 1163 322 1096 293 1128 "},"Œ":{"ha":1385,"x_min":0,"x_max":0,"o":"m 668 794 l 578 794 b 264 486 396 794 264 664 b 578 178 264 308 396 178 l 668 178 m 76 486 b 571 972 76 768 285 972 l 1249 972 b 1336 882 1297 972 1336 933 b 1249 794 1336 833 1297 794 l 856 794 l 856 571 l 1213 571 b 1300 488 1268 571 1300 542 b 1213 403 1300 433 1268 403 l 856 403 l 856 178 l 1249 178 b 1336 90 1297 178 1336 139 b 1249 0 1336 39 1297 0 l 571 0 b 76 486 285 0 76 204 "},"P":{"ha":858,"x_min":0,"x_max":0,"o":"m 76 879 b 171 972 76 931 118 972 l 474 972 b 821 638 706 972 821 804 b 474 301 821 469 706 301 l 264 301 l 264 28 b 236 0 264 13 251 0 l 104 0 b 76 28 89 0 76 13 l 76 879 m 467 479 b 635 638 579 479 635 558 b 467 794 635 715 579 794 l 264 794 l 264 479 "},"Þ":{"ha":858,"x_min":0,"x_max":0,"o":"m 76 879 b 171 972 76 931 118 972 b 264 879 222 972 264 931 l 264 822 l 474 822 b 821 488 706 822 821 654 b 474 151 821 319 706 151 l 264 151 l 264 28 b 236 0 264 13 251 0 l 104 0 b 76 28 89 0 76 13 l 76 879 m 467 329 b 635 488 579 329 635 408 b 467 644 635 565 579 644 l 264 644 l 264 329 "},"Q":{"ha":1124,"x_min":0,"x_max":0,"o":"m 561 154 b 878 488 747 154 878 292 b 561 819 878 682 747 819 b 246 488 376 819 246 682 b 561 154 246 292 376 154 m 58 488 b 561 994 58 785 265 994 b 1065 488 857 994 1065 785 b 721 1 1065 246 929 63 b 851 -67 744 -40 789 -67 l 893 -67 b 971 -144 936 -67 971 -101 b 893 -222 971 -187 936 -222 l 851 -222 b 536 -21 688 -222 576 -143 b 58 488 254 -8 58 197 "},"R":{"ha":858,"x_min":0,"x_max":0,"o":"m 76 879 b 171 972 76 931 118 972 l 494 972 b 810 665 706 972 810 818 b 650 392 810 556 757 446 l 797 136 b 764 8 824 92 808 35 b 635 42 718 -18 661 -3 l 454 357 l 264 357 l 264 28 b 236 0 264 13 251 0 l 104 0 b 76 28 89 0 76 13 l 76 879 m 488 535 b 624 665 579 535 624 600 b 488 794 624 729 579 794 l 264 794 l 264 535 "},"S":{"ha":825,"x_min":0,"x_max":0,"o":"m 422 994 b 694 914 524 994 622 969 b 719 751 761 863 761 782 b 572 778 675 718 624 736 b 422 819 532 808 475 819 b 258 704 307 819 258 763 b 782 283 258 515 782 643 b 421 -22 782 131 663 -22 b 97 86 293 -22 186 18 b 72 249 31 138 31 218 b 219 222 117 282 168 264 b 421 153 276 179 342 153 b 594 283 538 153 594 218 b 71 704 594 468 71 326 b 422 994 71 850 181 994 "},"Š":{"ha":825,"x_min":0,"x_max":0,"o":"m 422 994 b 694 914 524 994 622 969 b 719 751 761 863 761 782 b 572 778 675 718 624 736 b 422 819 532 808 475 819 b 258 704 307 819 258 763 b 782 283 258 515 782 643 b 421 -22 782 131 663 -22 b 97 86 293 -22 186 18 b 72 249 31 138 31 218 b 219 222 117 282 168 264 b 421 153 276 179 342 153 b 594 283 538 153 594 218 b 71 704 594 468 71 326 b 422 994 71 850 181 994 m 193 1289 b 296 1307 217 1321 263 1331 l 413 1225 l 529 1307 b 632 1289 563 1329 608 1321 b 614 1186 654 1256 647 1208 l 454 1074 b 413 1061 442 1065 426 1061 b 371 1074 399 1061 383 1065 l 211 1186 b 193 1289 178 1210 171 1256 "},"T":{"ha":838,"x_min":0,"x_max":0,"o":"m 117 794 b 28 885 68 794 28 833 b 117 972 28 933 68 972 l 722 972 b 810 885 771 972 810 933 b 722 794 810 833 771 794 l 513 794 l 513 28 b 485 0 513 13 500 0 l 353 0 b 325 28 338 0 325 13 l 325 794 l 117 794 "},"U":{"ha":949,"x_min":0,"x_max":0,"o":"m 76 879 b 171 972 76 931 118 972 b 264 879 222 972 264 931 l 264 388 b 475 146 264 239 346 146 b 685 388 604 146 685 239 l 685 879 b 779 972 685 931 726 972 b 872 879 831 972 872 931 l 872 386 b 475 -22 872 135 719 -22 b 76 386 231 -22 76 135 l 76 879 "},"Ú":{"ha":949,"x_min":0,"x_max":0,"o":"m 76 879 b 171 972 76 931 118 972 b 264 879 222 972 264 931 l 264 388 b 475 146 264 239 346 146 b 685 388 604 146 685 239 l 685 879 b 779 972 685 931 726 972 b 872 879 831 972 872 931 l 872 386 b 475 -22 872 135 719 -22 b 76 386 231 -22 76 135 l 76 879 m 376 1092 b 479 1074 400 1060 446 1051 l 639 1186 b 657 1289 671 1208 679 1256 b 554 1307 633 1321 588 1329 l 394 1194 b 376 1092 361 1172 354 1125 "},"Û":{"ha":949,"x_min":0,"x_max":0,"o":"m 76 879 b 171 972 76 931 118 972 b 264 879 222 972 264 931 l 264 388 b 475 146 264 239 346 146 b 685 388 604 146 685 239 l 685 879 b 779 972 685 931 726 972 b 872 879 831 972 872 931 l 872 386 b 475 -22 872 135 719 -22 b 76 386 231 -22 76 135 l 76 879 m 256 1092 b 274 1194 233 1125 240 1171 l 433 1307 b 475 1319 446 1315 461 1319 b 517 1307 489 1319 504 1315 l 676 1194 b 694 1092 710 1172 717 1125 b 592 1074 671 1060 625 1051 l 475 1156 l 358 1074 b 256 1092 325 1050 279 1060 "},"Ü":{"ha":949,"x_min":0,"x_max":0,"o":"m 76 879 b 171 972 76 931 118 972 b 264 879 222 972 264 931 l 264 388 b 475 146 264 239 346 146 b 685 388 604 146 685 239 l 685 879 b 779 972 685 931 726 972 b 872 879 831 972 872 931 l 872 386 b 475 -22 872 135 719 -22 b 76 386 231 -22 76 135 l 76 879 m 246 1172 b 342 1268 246 1226 288 1268 b 438 1172 396 1268 438 1226 b 342 1078 438 1119 396 1078 b 246 1172 288 1078 246 1119 m 514 1172 b 610 1268 514 1226 556 1268 b 704 1172 663 1268 704 1226 b 610 1078 704 1119 663 1078 b 514 1172 556 1078 514 1119 "},"Ù":{"ha":949,"x_min":0,"x_max":0,"o":"m 76 879 b 171 972 76 931 118 972 b 264 879 222 972 264 931 l 264 388 b 475 146 264 239 346 146 b 685 388 604 146 685 239 l 685 879 b 779 972 685 931 726 972 b 872 879 831 972 872 931 l 872 386 b 475 -22 872 135 719 -22 b 76 386 231 -22 76 135 l 76 879 m 278 1303 b 296 1200 256 1269 264 1222 l 456 1088 b 558 1106 489 1065 535 1074 b 540 1208 581 1139 574 1186 l 381 1321 b 278 1303 347 1343 301 1335 "},"V":{"ha":992,"x_min":0,"x_max":0,"o":"m 496 264 l 767 915 b 886 971 788 964 838 989 b 943 851 935 954 964 899 l 604 72 b 496 0 583 24 540 0 b 388 72 451 0 408 24 l 49 851 b 106 971 28 899 57 954 b 225 915 154 989 204 964 "},"W":{"ha":1278,"x_min":0,"x_max":0,"o":"m 24 858 b 90 972 10 908 40 958 b 204 906 140 986 192 956 l 367 272 l 529 906 b 639 974 542 954 563 974 b 749 906 715 974 736 954 l 911 272 l 1074 906 b 1188 972 1086 956 1138 986 b 1254 858 1238 958 1268 908 l 1033 49 b 985 0 1025 19 1007 0 l 838 0 b 789 49 815 0 796 19 l 639 618 l 489 49 b 440 0 482 19 463 0 l 293 0 b 244 49 271 0 253 19 l 24 858 "},"X":{"ha":846,"x_min":0,"x_max":0,"o":"m 74 831 b 97 961 43 874 54 932 b 226 939 139 992 196 982 l 424 660 l 619 939 b 749 961 650 982 707 992 b 772 831 792 932 803 874 l 538 497 l 786 143 b 764 13 817 100 807 42 b 633 35 721 -18 664 -8 l 424 333 l 213 35 b 82 13 182 -8 125 -18 b 60 143 39 42 29 100 l 308 497 l 74 831 "},"Y":{"ha":857,"x_min":0,"x_max":0,"o":"m 51 831 b 75 961 21 874 32 932 b 204 939 117 992 174 982 l 429 619 l 653 939 b 782 961 683 982 740 992 b 806 831 825 932 836 874 l 522 428 l 522 28 b 494 0 522 13 510 0 l 363 0 b 335 28 347 0 335 13 l 335 428 l 51 831 "},"Ý":{"ha":857,"x_min":0,"x_max":0,"o":"m 51 831 b 75 961 21 874 32 932 b 204 939 117 992 174 982 l 429 619 l 653 939 b 782 961 683 982 740 992 b 806 831 825 932 836 874 l 522 428 l 522 28 b 494 0 522 13 510 0 l 363 0 b 335 28 347 0 335 13 l 335 428 l 51 831 m 331 1092 b 433 1074 354 1060 400 1051 l 593 1186 b 611 1289 625 1208 633 1256 b 508 1307 588 1321 542 1329 l 349 1194 b 331 1092 315 1172 308 1125 "},"Ÿ":{"ha":857,"x_min":0,"x_max":0,"o":"m 51 831 b 75 961 21 874 32 932 b 204 939 117 992 174 982 l 429 619 l 653 939 b 782 961 683 982 740 992 b 806 831 825 932 836 874 l 522 428 l 522 28 b 494 0 522 13 510 0 l 363 0 b 335 28 347 0 335 13 l 335 428 l 51 831 m 200 1172 b 296 1268 200 1226 242 1268 b 392 1172 350 1268 392 1226 b 296 1078 392 1119 350 1078 b 200 1172 242 1078 200 1119 m 468 1172 b 564 1268 468 1226 510 1268 b 658 1172 617 1268 658 1226 b 564 1078 658 1119 617 1078 b 468 1172 510 1078 468 1119 "},"Z":{"ha":832,"x_min":0,"x_max":0,"o":"m 163 794 b 74 885 114 794 74 833 b 163 972 74 933 114 972 l 671 972 b 758 885 725 972 758 939 b 713 785 758 860 738 822 l 322 178 l 699 178 b 786 88 747 178 786 139 b 699 0 786 39 747 0 l 135 0 b 46 88 81 0 46 33 b 93 188 46 111 67 146 l 483 794 l 163 794 "},"Ž":{"ha":832,"x_min":0,"x_max":0,"o":"m 163 794 b 74 885 114 794 74 833 b 163 972 74 933 114 972 l 671 972 b 758 885 725 972 758 939 b 713 785 758 860 738 822 l 322 178 l 699 178 b 786 88 747 178 786 139 b 699 0 786 39 747 0 l 135 0 b 46 88 81 0 46 33 b 93 188 46 111 67 146 l 483 794 l 163 794 m 197 1289 b 300 1307 221 1321 267 1331 l 417 1225 l 533 1307 b 636 1289 567 1329 613 1321 b 618 1186 658 1256 651 1208 l 458 1074 b 417 1061 446 1065 431 1061 b 375 1074 403 1061 388 1065 l 215 1186 b 197 1289 182 1210 175 1256 "},"a":{"ha":858,"x_min":0,"x_max":0,"o":"m 619 353 b 426 563 619 476 539 563 b 231 353 311 563 231 476 b 426 143 231 229 311 143 b 619 353 539 143 619 229 m 56 353 b 390 724 56 569 194 724 b 615 633 481 724 558 690 l 615 635 b 704 724 615 683 656 724 b 794 635 754 724 794 683 l 794 26 b 768 0 794 13 782 0 l 642 0 b 615 26 628 0 615 13 l 615 72 b 390 -18 558 15 481 -18 b 56 353 194 -18 56 136 "},"á":{"ha":858,"x_min":0,"x_max":0,"o":"m 619 353 b 426 563 619 476 539 563 b 231 353 311 563 231 476 b 426 143 231 229 311 143 b 619 353 539 143 619 229 m 56 353 b 390 724 56 569 194 724 b 615 633 481 724 558 690 l 615 635 b 704 724 615 683 656 724 b 794 635 754 724 794 683 l 794 26 b 768 0 794 13 782 0 l 642 0 b 615 26 628 0 615 13 l 615 72 b 390 -18 558 15 481 -18 b 56 353 194 -18 56 136 m 331 814 b 433 796 354 782 400 774 l 593 908 b 611 1011 625 931 633 978 b 508 1029 588 1043 542 1051 l 349 917 b 331 814 315 894 308 847 "},"â":{"ha":858,"x_min":0,"x_max":0,"o":"m 619 353 b 426 563 619 476 539 563 b 231 353 311 563 231 476 b 426 143 231 229 311 143 b 619 353 539 143 619 229 m 56 353 b 390 724 56 569 194 724 b 615 633 481 724 558 690 l 615 635 b 704 724 615 683 656 724 b 794 635 754 724 794 683 l 794 26 b 768 0 794 13 782 0 l 642 0 b 615 26 628 0 615 13 l 615 72 b 390 -18 558 15 481 -18 b 56 353 194 -18 56 136 m 210 814 b 228 917 188 847 194 893 l 388 1029 b 429 1042 400 1038 415 1042 b 471 1029 443 1042 458 1038 l 631 917 b 649 814 664 894 671 847 b 546 796 625 782 579 774 l 429 878 l 313 796 b 210 814 279 772 233 782 "},"ä":{"ha":858,"x_min":0,"x_max":0,"o":"m 619 353 b 426 563 619 476 539 563 b 231 353 311 563 231 476 b 426 143 231 229 311 143 b 619 353 539 143 619 229 m 56 353 b 390 724 56 569 194 724 b 615 633 481 724 558 690 l 615 635 b 704 724 615 683 656 724 b 794 635 754 724 794 683 l 794 26 b 768 0 794 13 782 0 l 642 0 b 615 26 628 0 615 13 l 615 72 b 390 -18 558 15 481 -18 b 56 353 194 -18 56 136 m 200 894 b 296 990 200 949 242 990 b 392 894 350 990 392 949 b 296 800 392 842 350 800 b 200 894 242 800 200 842 m 468 894 b 564 990 468 949 510 990 b 658 894 617 990 658 949 b 564 800 658 842 617 800 b 468 894 510 800 468 842 "},"à":{"ha":858,"x_min":0,"x_max":0,"o":"m 619 353 b 426 563 619 476 539 563 b 231 353 311 563 231 476 b 426 143 231 229 311 143 b 619 353 539 143 619 229 m 56 353 b 390 724 56 569 194 724 b 615 633 481 724 558 690 l 615 635 b 704 724 615 683 656 724 b 794 635 754 724 794 683 l 794 26 b 768 0 794 13 782 0 l 642 0 b 615 26 628 0 615 13 l 615 72 b 390 -18 558 15 481 -18 b 56 353 194 -18 56 136 m 232 1025 b 250 922 210 992 218 944 l 410 810 b 513 828 443 788 489 796 b 494 931 535 861 528 908 l 335 1043 b 232 1025 301 1065 256 1057 "},"å":{"ha":858,"x_min":0,"x_max":0,"o":"m 619 353 b 426 563 619 476 539 563 b 231 353 311 563 231 476 b 426 143 231 229 311 143 b 619 353 539 143 619 229 m 56 353 b 390 724 56 569 194 724 b 615 633 481 724 558 690 l 615 635 b 704 724 615 683 656 724 b 794 635 754 724 794 683 l 794 26 b 768 0 794 13 782 0 l 642 0 b 615 26 628 0 615 13 l 615 72 b 390 -18 558 15 481 -18 b 56 353 194 -18 56 136 m 285 942 b 428 1085 285 1022 347 1085 b 572 942 510 1085 572 1022 b 428 800 572 863 510 800 b 285 942 347 800 285 863 m 372 942 b 428 888 372 911 397 888 b 485 942 460 888 485 911 b 428 997 485 974 460 997 b 372 942 397 997 372 974 "},"ã":{"ha":858,"x_min":0,"x_max":0,"o":"m 619 353 b 426 563 619 476 539 563 b 231 353 311 563 231 476 b 426 143 231 229 311 143 b 619 353 539 143 619 229 m 56 353 b 390 724 56 569 194 724 b 615 633 481 724 558 690 l 615 635 b 704 724 615 683 656 724 b 794 635 754 724 794 683 l 794 26 b 768 0 794 13 782 0 l 642 0 b 615 26 628 0 615 13 l 615 72 b 390 -18 558 15 481 -18 b 56 353 194 -18 56 136 m 168 885 b 319 1024 181 964 242 1024 b 460 971 378 1024 422 994 b 539 936 490 951 514 936 b 578 971 560 936 569 946 b 636 1018 586 997 607 1018 b 692 951 669 1018 699 986 b 539 813 678 872 617 813 b 400 864 481 813 436 842 b 319 900 369 885 346 900 b 281 865 299 900 289 890 b 224 818 269 836 251 818 b 168 885 189 818 160 850 "},"æ":{"ha":1363,"x_min":0,"x_max":0,"o":"m 619 353 b 426 563 619 476 539 563 b 231 353 311 563 231 476 b 426 143 231 229 311 143 b 619 353 539 143 619 229 m 56 353 b 390 724 56 569 194 724 b 615 633 481 724 558 690 l 615 635 b 704 724 615 683 656 724 b 786 674 740 724 771 703 b 974 724 839 706 903 724 b 1314 379 1172 724 1314 581 b 1228 290 1314 308 1264 290 l 801 290 b 988 143 825 201 896 143 b 1125 176 1040 143 1083 151 b 1188 194 1147 189 1169 194 b 1267 118 1235 194 1267 158 b 1214 36 1267 89 1250 58 b 988 -18 1149 -4 1069 -18 b 794 31 915 -18 850 0 l 794 26 b 768 0 794 13 782 0 l 642 0 b 615 26 628 0 615 13 l 615 72 b 390 -18 558 15 481 -18 b 56 353 194 -18 56 136 m 1136 417 b 974 563 1122 504 1058 563 b 801 417 889 563 822 506 "},"b":{"ha":858,"x_min":0,"x_max":0,"o":"m 432 140 b 628 353 547 140 628 226 b 432 563 628 476 547 563 b 239 353 319 563 239 476 b 432 140 239 226 319 140 m 64 911 b 154 1000 64 960 104 1000 b 243 911 203 1000 243 960 l 243 635 b 468 724 300 692 378 724 b 803 353 664 724 803 569 b 432 -21 803 133 649 -21 b 64 353 217 -21 64 133 "},"c":{"ha":703,"x_min":0,"x_max":0,"o":"m 56 353 b 424 724 56 569 208 724 b 629 676 500 724 571 711 b 682 594 665 654 682 624 b 603 518 682 554 650 518 b 540 536 585 518 563 524 b 424 563 503 557 467 563 b 231 353 311 563 231 476 b 424 143 231 229 311 143 b 540 169 468 143 506 149 b 603 188 563 182 585 188 b 682 111 650 188 682 151 b 629 29 682 82 665 51 b 424 -18 571 -7 499 -18 b 56 353 208 -18 56 136 "},"ç":{"ha":703,"x_min":0,"x_max":0,"o":"m 56 353 b 424 724 56 569 208 724 b 629 676 500 724 571 711 b 682 594 665 654 682 624 b 603 518 682 554 650 518 b 540 536 585 518 563 524 b 424 563 503 557 467 563 b 231 353 311 563 231 476 b 424 143 231 229 311 143 b 540 169 468 143 506 149 b 603 188 563 182 585 188 b 682 111 650 188 682 151 b 629 29 682 82 665 51 b 454 -18 579 -1 518 -14 l 454 -61 l 458 -61 b 625 -200 550 -61 625 -107 b 469 -344 625 -278 571 -344 b 346 -296 428 -344 378 -329 b 354 -203 314 -261 325 -215 b 422 -217 379 -189 403 -200 b 469 -237 442 -235 454 -237 b 514 -200 497 -237 514 -224 b 458 -162 514 -176 492 -162 l 388 -162 b 343 -117 361 -162 343 -140 l 343 -11 b 56 353 171 24 56 164 "},"d":{"ha":858,"x_min":0,"x_max":0,"o":"m 426 140 b 619 353 539 140 619 226 b 426 563 619 476 539 563 b 231 353 311 563 231 476 b 426 140 231 226 311 140 m 56 353 b 390 724 56 569 194 724 b 615 635 481 724 558 692 l 615 911 b 704 1000 615 960 656 1000 b 794 911 754 1000 794 960 l 794 353 b 426 -21 794 133 642 -21 b 56 353 210 -21 56 133 "},"ð":{"ha":813,"x_min":0,"x_max":0,"o":"m 757 319 b 408 -21 757 119 613 -21 b 56 319 201 -21 56 119 b 354 651 56 540 208 651 b 422 643 378 651 400 649 l 358 733 l 285 690 b 193 715 253 672 211 683 b 218 807 175 747 186 786 l 281 843 l 274 851 b 294 972 247 889 256 944 b 419 951 336 1000 394 990 l 433 931 l 483 960 b 575 935 515 978 557 967 b 550 843 593 903 582 864 l 508 819 l 675 568 b 757 319 725 493 757 413 m 235 318 b 408 132 235 208 306 132 b 578 318 508 132 578 208 b 408 501 578 426 508 501 b 235 318 306 501 235 426 "},"e":{"ha":799,"x_min":0,"x_max":0,"o":"m 56 353 b 410 724 56 569 203 724 b 750 379 608 724 750 581 b 664 290 750 308 700 290 l 238 290 b 424 143 261 201 332 143 b 561 176 476 143 519 151 b 624 194 583 189 606 194 b 703 118 671 194 703 158 b 650 36 703 89 686 58 b 424 -18 585 -4 506 -18 b 56 353 208 -18 56 136 m 572 417 b 410 563 558 504 494 563 b 238 417 325 563 258 506 "},"é":{"ha":799,"x_min":0,"x_max":0,"o":"m 301 814 b 404 796 325 782 371 774 l 564 908 b 582 1011 596 931 604 978 b 479 1029 558 1043 513 1051 l 319 917 b 301 814 286 894 279 847 m 56 353 b 410 724 56 569 203 724 b 750 379 608 724 750 581 b 664 290 750 308 700 290 l 238 290 b 424 143 261 201 332 143 b 561 176 476 143 519 151 b 624 194 583 189 606 194 b 703 118 671 194 703 158 b 650 36 703 89 686 58 b 424 -18 585 -4 506 -18 b 56 353 208 -18 56 136 m 572 417 b 410 563 558 504 494 563 b 238 417 325 563 258 506 "},"ê":{"ha":799,"x_min":0,"x_max":0,"o":"m 181 814 b 199 917 158 847 165 893 l 358 1029 b 400 1042 371 1038 386 1042 b 442 1029 414 1042 429 1038 l 601 917 b 619 814 635 894 642 847 b 517 796 596 782 550 774 l 400 878 l 283 796 b 181 814 250 772 204 782 m 56 353 b 410 724 56 569 203 724 b 750 379 608 724 750 581 b 664 290 750 308 700 290 l 238 290 b 424 143 261 201 332 143 b 561 176 476 143 519 151 b 624 194 583 189 606 194 b 703 118 671 194 703 158 b 650 36 703 89 686 58 b 424 -18 585 -4 506 -18 b 56 353 208 -18 56 136 m 572 417 b 410 563 558 504 494 563 b 238 417 325 563 258 506 "},"ë":{"ha":799,"x_min":0,"x_max":0,"o":"m 171 894 b 267 990 171 949 213 990 b 363 894 321 990 363 949 b 267 800 363 842 321 800 b 171 894 213 800 171 842 m 56 353 b 410 724 56 569 203 724 b 750 379 608 724 750 581 b 664 290 750 308 700 290 l 238 290 b 424 143 261 201 332 143 b 561 176 476 143 519 151 b 624 194 583 189 606 194 b 703 118 671 194 703 158 b 650 36 703 89 686 58 b 424 -18 585 -4 506 -18 b 56 353 208 -18 56 136 m 572 417 b 410 563 558 504 494 563 b 238 417 325 563 258 506 m 439 894 b 535 990 439 949 481 990 b 629 894 588 990 629 949 b 535 800 629 842 588 800 b 439 894 481 800 439 842 "},"è":{"ha":799,"x_min":0,"x_max":0,"o":"m 483 828 b 465 931 506 861 499 908 l 306 1043 b 203 1025 272 1065 226 1057 b 221 922 181 992 189 944 l 381 810 b 483 828 414 788 460 796 m 56 353 b 410 724 56 569 203 724 b 750 379 608 724 750 581 b 664 290 750 308 700 290 l 238 290 b 424 143 261 201 332 143 b 561 176 476 143 519 151 b 624 194 583 189 606 194 b 703 118 671 194 703 158 b 650 36 703 89 686 58 b 424 -18 585 -4 506 -18 b 56 353 208 -18 56 136 m 572 417 b 410 563 558 504 494 563 b 238 417 325 563 258 506 "},"f":{"ha":613,"x_min":0,"x_max":0,"o":"m 160 738 b 424 972 160 876 256 972 l 507 972 b 585 894 550 972 585 938 b 507 817 585 851 550 817 l 424 817 b 339 733 368 817 339 782 l 339 717 l 490 717 b 568 639 533 717 568 682 b 490 561 568 596 533 561 l 339 561 l 339 26 b 313 0 339 13 326 0 l 186 0 b 160 26 172 0 160 13 l 160 561 l 106 561 b 28 639 63 561 28 596 b 106 717 28 682 63 717 l 160 717 l 160 738 "},"g":{"ha":858,"x_min":0,"x_max":0,"o":"m 619 353 b 426 563 619 476 539 563 b 231 353 311 563 231 476 b 426 143 231 229 311 143 b 619 353 539 143 619 229 m 56 353 b 390 724 56 569 194 724 b 615 633 481 724 558 690 l 615 635 b 704 724 615 683 656 724 b 794 635 754 724 794 683 l 794 40 b 436 -317 794 -197 629 -317 b 172 -257 340 -317 247 -300 b 119 -175 138 -237 119 -204 b 199 -99 119 -135 151 -99 b 261 -117 217 -99 240 -106 b 436 -156 313 -144 369 -156 b 615 40 528 -156 615 -106 l 615 72 b 390 -18 558 15 481 -18 b 56 353 194 -18 56 136 "},"h":{"ha":789,"x_min":0,"x_max":0,"o":"m 64 911 b 154 1000 64 960 104 1000 b 243 911 203 1000 243 960 l 243 656 b 436 724 293 699 360 724 b 732 406 610 724 732 593 l 732 26 b 706 0 732 13 719 0 l 579 0 b 553 26 565 0 553 13 l 553 401 b 399 567 553 499 489 567 b 243 401 307 567 243 499 l 243 26 b 217 0 243 13 231 0 l 90 0 b 64 26 76 0 64 13 l 64 911 "},"i":{"ha":343,"x_min":0,"x_max":0,"o":"m 82 633 b 172 722 82 682 122 722 b 261 633 221 722 261 682 l 261 26 b 235 0 261 13 249 0 l 108 0 b 82 26 94 0 82 13 l 82 633 m 63 910 b 172 1018 63 969 111 1018 b 281 910 232 1018 281 969 b 172 801 281 850 232 801 b 63 910 111 801 63 850 "},"ı":{"ha":343,"x_min":0,"x_max":0,"o":"m 82 633 b 172 722 82 682 122 722 b 261 633 221 722 261 682 l 261 26 b 235 0 261 13 249 0 l 108 0 b 82 26 94 0 82 13 l 82 633 "},"í":{"ha":343,"x_min":0,"x_max":0,"o":"m 82 633 b 172 722 82 682 122 722 b 261 633 221 722 261 682 l 261 26 b 235 0 261 13 249 0 l 108 0 b 82 26 94 0 82 13 l 82 633 m 74 814 b 176 796 97 782 143 774 l 336 908 b 354 1011 368 931 376 978 b 251 1029 331 1043 285 1051 l 92 917 b 74 814 58 894 51 847 "},"î":{"ha":343,"x_min":0,"x_max":0,"o":"m 82 633 b 172 722 82 682 122 722 b 261 633 221 722 261 682 l 261 26 b 235 0 261 13 249 0 l 108 0 b 82 26 94 0 82 13 l 82 633 m -47 814 b -29 917 -69 847 -62 893 l 131 1029 b 172 1042 143 1038 158 1042 b 214 1029 186 1042 201 1038 l 374 917 b 392 814 407 894 414 847 b 289 796 368 782 322 774 l 172 878 l 56 796 b -47 814 22 772 -24 782 "},"ï":{"ha":343,"x_min":0,"x_max":0,"o":"m 82 633 b 172 722 82 682 122 722 b 261 633 221 722 261 682 l 261 26 b 235 0 261 13 249 0 l 108 0 b 82 26 94 0 82 13 l 82 633 m -57 894 b 39 990 -57 949 -15 990 b 135 894 93 990 135 949 b 39 800 135 842 93 800 b -57 894 -15 800 -57 842 m 211 894 b 307 990 211 949 253 990 b 401 894 360 990 401 949 b 307 800 401 842 360 800 b 211 894 253 800 211 842 "},"ì":{"ha":343,"x_min":0,"x_max":0,"o":"m 82 633 b 172 722 82 682 122 722 b 261 633 221 722 261 682 l 261 26 b 235 0 261 13 249 0 l 108 0 b 82 26 94 0 82 13 l 82 633 m -25 1025 b -7 922 -47 992 -39 944 l 153 810 b 256 828 186 788 232 796 b 238 931 278 861 271 908 l 78 1043 b -25 1025 44 1065 -1 1057 "},"j":{"ha":343,"x_min":0,"x_max":0,"o":"m 82 633 b 172 722 82 682 122 722 b 261 633 221 722 261 682 l 261 -15 b -3 -278 261 -169 164 -278 l -19 -278 b -97 -200 -62 -278 -97 -243 b -19 -122 -97 -157 -62 -122 l -3 -122 b 82 -11 54 -122 82 -76 l 82 633 m 63 910 b 172 1018 63 969 111 1018 b 281 910 232 1018 281 969 b 172 801 281 850 232 801 b 63 910 111 801 63 850 "},"k":{"ha":715,"x_min":0,"x_max":0,"o":"m 64 911 b 154 1000 64 960 104 1000 b 243 911 203 1000 243 960 l 243 456 l 490 697 b 600 697 521 726 571 728 b 601 586 631 665 632 617 l 454 442 l 681 122 b 657 4 707 85 696 33 b 540 25 619 -22 565 -11 l 332 321 l 243 235 l 243 26 b 217 0 243 13 231 0 l 90 0 b 64 26 76 0 64 13 l 64 911 "},"l":{"ha":307,"x_min":0,"x_max":0,"o":"m 64 911 b 154 1000 64 960 104 1000 b 243 911 203 1000 243 960 l 243 26 b 217 0 243 13 231 0 l 90 0 b 64 26 76 0 64 13 l 64 911 "},"ł":{"ha":568,"x_min":0,"x_max":0,"o":"m 194 911 b 285 1000 194 960 235 1000 b 374 911 333 1000 374 960 l 374 628 l 413 646 b 517 608 451 664 499 647 b 479 506 535 569 518 524 l 374 456 l 374 26 b 347 0 374 13 361 0 l 221 0 b 194 26 207 0 194 13 l 194 372 l 156 354 b 51 392 117 336 69 353 b 89 494 33 431 50 476 l 194 544 l 194 911 "},"m":{"ha":1167,"x_min":0,"x_max":0,"o":"m 64 633 b 154 722 64 682 104 722 b 238 663 193 722 225 697 b 408 724 283 701 342 724 b 624 608 500 724 576 681 b 842 724 671 681 747 724 b 1110 419 999 724 1110 599 l 1110 26 b 1083 0 1110 13 1097 0 l 957 0 b 931 26 943 0 931 13 l 931 415 b 804 567 931 504 878 567 b 676 415 729 567 676 504 l 676 26 b 650 0 676 13 664 0 l 524 0 b 497 26 510 0 497 13 l 497 415 b 371 567 497 504 444 567 b 243 415 296 567 243 504 l 243 26 b 217 0 243 13 231 0 l 90 0 b 64 26 76 0 64 13 l 64 633 "},"n":{"ha":789,"x_min":0,"x_max":0,"o":"m 64 633 b 154 722 64 682 104 722 b 240 654 196 722 232 693 b 436 724 292 699 358 724 b 732 406 610 724 732 593 l 732 26 b 706 0 732 13 719 0 l 579 0 b 553 26 565 0 553 13 l 553 401 b 399 567 553 499 489 567 b 243 401 307 567 243 499 l 243 26 b 217 0 243 13 231 0 l 90 0 b 64 26 76 0 64 13 l 64 633 "},"ñ":{"ha":789,"x_min":0,"x_max":0,"o":"m 64 633 b 154 722 64 682 104 722 b 240 654 196 722 232 693 b 436 724 292 699 358 724 b 732 406 610 724 732 593 l 732 26 b 706 0 732 13 719 0 l 579 0 b 553 26 565 0 553 13 l 553 401 b 399 567 553 499 489 567 b 243 401 307 567 243 499 l 243 26 b 217 0 243 13 231 0 l 90 0 b 64 26 76 0 64 13 l 64 633 m 133 885 b 285 1024 146 964 207 1024 b 425 971 343 1024 388 994 b 504 936 456 951 479 936 b 543 971 525 936 535 946 b 601 1018 551 997 572 1018 b 657 951 635 1018 664 986 b 504 813 643 872 582 813 b 365 864 446 813 401 842 b 285 900 335 885 311 900 b 246 865 264 900 254 890 b 189 818 235 836 217 818 b 133 885 154 818 125 850 "},"o":{"ha":850,"x_min":0,"x_max":0,"o":"m 424 -21 b 56 353 208 -21 56 133 b 424 724 56 569 208 724 b 794 353 640 724 794 569 b 424 -21 794 133 640 -21 m 231 353 b 424 140 231 226 311 140 b 619 353 539 140 619 226 b 424 563 619 476 539 563 b 231 353 311 563 231 476 "},"ó":{"ha":850,"x_min":0,"x_max":0,"o":"m 424 -21 b 56 353 208 -21 56 133 b 424 724 56 569 208 724 b 794 353 640 724 794 569 b 424 -21 794 133 640 -21 m 231 353 b 424 140 231 226 311 140 b 619 353 539 140 619 226 b 424 563 619 476 539 563 b 231 353 311 563 231 476 m 326 814 b 429 796 350 782 396 774 l 589 908 b 607 1011 621 931 629 978 b 504 1029 583 1043 538 1051 l 344 917 b 326 814 311 894 304 847 "},"ô":{"ha":850,"x_min":0,"x_max":0,"o":"m 424 -21 b 56 353 208 -21 56 133 b 424 724 56 569 208 724 b 794 353 640 724 794 569 b 424 -21 794 133 640 -21 m 206 814 b 224 917 183 847 190 893 l 383 1029 b 425 1042 396 1038 411 1042 b 467 1029 439 1042 454 1038 l 626 917 b 644 814 660 894 667 847 b 542 796 621 782 575 774 l 425 878 l 308 796 b 206 814 275 772 229 782 m 231 353 b 424 140 231 226 311 140 b 619 353 539 140 619 226 b 424 563 619 476 539 563 b 231 353 311 563 231 476 "},"ö":{"ha":850,"x_min":0,"x_max":0,"o":"m 424 -21 b 56 353 208 -21 56 133 b 424 724 56 569 208 724 b 794 353 640 724 794 569 b 424 -21 794 133 640 -21 m 196 894 b 292 990 196 949 238 990 b 388 894 346 990 388 949 b 292 800 388 842 346 800 b 196 894 238 800 196 842 m 231 353 b 424 140 231 226 311 140 b 619 353 539 140 619 226 b 424 563 619 476 539 563 b 231 353 311 563 231 476 m 464 894 b 560 990 464 949 506 990 b 654 894 613 990 654 949 b 560 800 654 842 613 800 b 464 894 506 800 464 842 "},"ò":{"ha":850,"x_min":0,"x_max":0,"o":"m 424 -21 b 56 353 208 -21 56 133 b 424 724 56 569 208 724 b 794 353 640 724 794 569 b 424 -21 794 133 640 -21 m 228 1025 b 246 922 206 992 214 944 l 406 810 b 508 828 439 788 485 796 b 490 931 531 861 524 908 l 331 1043 b 228 1025 297 1065 251 1057 m 231 353 b 424 140 231 226 311 140 b 619 353 539 140 619 226 b 424 563 619 476 539 563 b 231 353 311 563 231 476 "},"ø":{"ha":850,"x_min":0,"x_max":0,"o":"m 424 -21 b 224 32 349 -21 281 -1 l 203 8 b 111 -1 176 -21 139 -25 b 111 92 85 21 83 61 l 132 115 b 56 353 83 178 56 260 b 424 724 56 569 208 724 b 625 669 500 724 568 704 l 646 693 b 738 703 671 722 710 726 b 739 610 764 679 765 639 l 718 588 b 794 353 767 525 794 444 b 424 -21 794 133 640 -21 m 231 353 b 251 250 231 314 238 279 l 513 543 b 424 563 486 556 457 563 b 231 353 311 563 231 476 m 338 160 b 424 140 363 147 392 140 b 619 353 539 140 619 226 b 599 453 619 390 613 424 l 338 160 "},"õ":{"ha":850,"x_min":0,"x_max":0,"o":"m 424 -21 b 56 353 208 -21 56 133 b 424 724 56 569 208 724 b 794 353 640 724 794 569 b 424 -21 794 133 640 -21 m 164 885 b 315 1024 176 964 238 1024 b 456 971 374 1024 418 994 b 535 936 486 951 510 936 b 574 971 556 936 565 946 b 632 1018 582 997 603 1018 b 688 951 665 1018 694 986 b 535 813 674 872 613 813 b 396 864 476 813 432 842 b 315 900 365 885 342 900 b 276 865 294 900 285 890 b 219 818 265 836 247 818 b 164 885 185 818 156 850 m 231 353 b 424 140 231 226 311 140 b 619 353 539 140 619 226 b 424 563 619 476 539 563 b 231 353 311 563 231 476 "},"œ":{"ha":1363,"x_min":0,"x_max":0,"o":"m 424 -21 b 707 103 542 -21 642 25 b 988 -18 774 26 871 -18 b 1214 36 1069 -18 1149 -4 b 1267 118 1250 58 1267 89 b 1188 194 1267 158 1235 194 b 1125 176 1169 194 1147 189 b 988 143 1083 151 1040 143 b 801 290 896 143 825 201 l 1228 290 b 1314 379 1264 290 1314 308 b 974 724 1314 581 1172 724 b 706 604 863 724 768 679 b 619 353 651 539 619 453 b 424 140 619 226 539 140 b 231 353 311 140 231 226 b 424 563 231 476 311 563 b 619 353 539 563 619 476 b 707 103 619 253 651 167 b 790 290 751 153 779 217 l 801 290 b 794 353 797 310 794 331 b 801 417 794 375 797 397 l 782 417 l 782 290 l 790 290 b 794 353 793 311 794 332 b 790 417 794 375 793 396 b 706 604 779 490 749 554 b 424 724 639 679 540 724 b 56 353 208 724 56 569 b 424 -21 56 133 208 -21 m 801 417 b 974 563 822 506 889 563 b 1136 417 1058 563 1122 504 l 801 417 "},"p":{"ha":858,"x_min":0,"x_max":0,"o":"m 432 563 b 239 350 319 563 239 476 b 432 140 239 226 319 140 b 628 350 547 140 628 226 b 432 563 628 476 547 563 m 64 350 b 432 724 64 569 217 724 b 803 350 649 724 803 569 b 468 -21 803 133 664 -21 b 243 68 378 -21 300 11 l 243 -208 b 154 -297 243 -257 203 -297 b 64 -208 104 -297 64 -257 "},"þ":{"ha":858,"x_min":0,"x_max":0,"o":"m 628 353 b 432 563 628 476 547 563 b 239 353 319 563 239 476 b 432 143 239 229 319 143 b 628 353 547 143 628 229 m 64 911 b 154 1000 64 960 104 1000 b 243 911 203 1000 243 960 l 243 635 b 468 724 300 692 378 724 b 803 353 664 724 803 569 b 468 -18 803 136 664 -18 b 243 71 378 -18 300 14 l 243 -206 b 154 -294 243 -254 203 -294 b 64 -206 104 -294 64 -254 "},"q":{"ha":858,"x_min":0,"x_max":0,"o":"m 426 563 b 231 350 311 563 231 476 b 426 140 231 226 311 140 b 619 350 539 140 619 226 b 426 563 619 476 539 563 m 56 350 b 426 724 56 569 210 724 b 794 350 642 724 794 569 l 794 -208 b 704 -297 794 -257 754 -297 b 615 -208 656 -297 615 -257 l 615 68 b 390 -21 558 11 481 -21 b 56 350 194 -21 56 133 "},"r":{"ha":538,"x_min":0,"x_max":0,"o":"m 439 722 b 517 644 482 722 517 688 b 439 567 517 601 482 567 l 397 567 b 243 400 294 567 243 497 l 243 26 b 217 0 243 13 231 0 l 90 0 b 64 26 76 0 64 13 l 64 404 b 397 722 64 592 186 722 l 439 722 "},"s":{"ha":607,"x_min":0,"x_max":0,"o":"m 294 724 b 490 676 367 724 435 711 b 540 594 525 654 540 624 b 465 518 540 554 510 518 b 406 536 447 518 426 525 b 294 563 369 554 335 563 b 229 510 254 563 229 542 b 572 206 229 408 572 458 b 301 -22 572 65 467 -22 b 88 25 222 -22 147 -11 b 35 107 51 47 35 78 b 114 183 35 147 67 183 b 176 165 132 183 154 176 b 301 139 217 144 256 139 b 396 201 364 139 396 171 b 53 506 396 313 53 263 b 294 724 53 639 144 724 "},"š":{"ha":607,"x_min":0,"x_max":0,"o":"m 294 724 b 490 676 367 724 435 711 b 540 594 525 654 540 624 b 465 518 540 554 510 518 b 406 536 447 518 426 525 b 294 563 369 554 335 563 b 229 510 254 563 229 542 b 572 206 229 408 572 458 b 301 -22 572 65 467 -22 b 88 25 222 -22 147 -11 b 35 107 51 47 35 78 b 114 183 35 147 67 183 b 176 165 132 183 154 176 b 301 139 217 144 256 139 b 396 201 364 139 396 171 b 53 506 396 313 53 263 b 294 724 53 639 144 724 m 85 1011 b 188 1029 108 1043 154 1053 l 304 947 l 421 1029 b 524 1011 454 1051 500 1043 b 506 908 546 978 539 931 l 346 796 b 304 783 333 788 318 783 b 263 796 290 783 275 788 l 103 908 b 85 1011 69 932 63 978 "},"ß":{"ha":801,"x_min":0,"x_max":0,"o":"m 415 839 b 243 650 301 839 243 760 l 243 26 b 217 0 243 13 231 0 l 90 0 b 64 26 76 0 64 13 l 64 654 b 415 994 64 857 192 994 b 750 708 611 994 750 876 b 628 500 750 628 700 542 b 767 278 710 456 767 364 b 411 -8 767 110 619 -22 b 328 74 356 -4 328 32 b 411 154 328 114 356 158 b 579 278 514 147 579 201 b 408 415 579 361 514 415 b 325 497 353 415 325 456 b 408 578 325 538 353 578 b 563 718 499 578 563 635 b 415 839 563 789 501 839 "},"t":{"ha":499,"x_min":0,"x_max":0,"o":"m 160 825 b 250 914 160 874 200 914 b 339 825 299 914 339 874 l 339 717 l 393 717 b 471 639 436 717 471 682 b 393 561 471 596 436 561 l 339 561 l 339 26 b 313 0 339 13 326 0 l 186 0 b 160 26 172 0 160 13 l 160 561 l 106 561 b 28 639 63 561 28 596 b 106 717 28 682 63 717 l 160 717 l 160 825 "},"u":{"ha":794,"x_min":0,"x_max":0,"o":"m 64 633 b 154 722 64 682 104 722 b 243 633 203 722 243 682 l 243 300 b 397 135 243 203 307 135 b 551 300 488 135 551 203 l 551 633 b 640 722 551 682 592 722 b 731 633 690 722 731 682 l 731 296 b 397 -22 731 108 593 -22 b 64 296 201 -22 64 108 l 64 633 "},"ú":{"ha":794,"x_min":0,"x_max":0,"o":"m 64 633 b 154 722 64 682 104 722 b 243 633 203 722 243 682 l 243 300 b 397 135 243 203 307 135 b 551 300 488 135 551 203 l 551 633 b 640 722 551 682 592 722 b 731 633 690 722 731 682 l 731 296 b 397 -22 731 108 593 -22 b 64 296 201 -22 64 108 l 64 633 m 299 814 b 401 796 322 782 368 774 l 561 908 b 579 1011 593 931 601 978 b 476 1029 556 1043 510 1051 l 317 917 b 299 814 283 894 276 847 "},"û":{"ha":794,"x_min":0,"x_max":0,"o":"m 64 633 b 154 722 64 682 104 722 b 243 633 203 722 243 682 l 243 300 b 397 135 243 203 307 135 b 551 300 488 135 551 203 l 551 633 b 640 722 551 682 592 722 b 731 633 690 722 731 682 l 731 296 b 397 -22 731 108 593 -22 b 64 296 201 -22 64 108 l 64 633 m 178 814 b 196 917 156 847 163 893 l 356 1029 b 397 1042 368 1038 383 1042 b 439 1029 411 1042 426 1038 l 599 917 b 617 814 632 894 639 847 b 514 796 593 782 547 774 l 397 878 l 281 796 b 178 814 247 772 201 782 "},"ü":{"ha":794,"x_min":0,"x_max":0,"o":"m 64 633 b 154 722 64 682 104 722 b 243 633 203 722 243 682 l 243 300 b 397 135 243 203 307 135 b 551 300 488 135 551 203 l 551 633 b 640 722 551 682 592 722 b 731 633 690 722 731 682 l 731 296 b 397 -22 731 108 593 -22 b 64 296 201 -22 64 108 l 64 633 m 168 894 b 264 990 168 949 210 990 b 360 894 318 990 360 949 b 264 800 360 842 318 800 b 168 894 210 800 168 842 m 436 894 b 532 990 436 949 478 990 b 626 894 585 990 626 949 b 532 800 626 842 585 800 b 436 894 478 800 436 842 "},"ù":{"ha":794,"x_min":0,"x_max":0,"o":"m 64 633 b 154 722 64 682 104 722 b 243 633 203 722 243 682 l 243 300 b 397 135 243 203 307 135 b 551 300 488 135 551 203 l 551 633 b 640 722 551 682 592 722 b 731 633 690 722 731 682 l 731 296 b 397 -22 731 108 593 -22 b 64 296 201 -22 64 108 l 64 633 m 200 1025 b 218 922 178 992 186 944 l 378 810 b 481 828 411 788 457 796 b 463 931 503 861 496 908 l 303 1043 b 200 1025 269 1065 224 1057 "},"v":{"ha":738,"x_min":0,"x_max":0,"o":"m 29 596 b 74 714 8 640 28 693 b 192 671 117 735 171 715 l 369 276 l 546 671 b 664 714 565 715 621 735 b 708 596 710 693 729 640 l 451 46 b 386 0 436 13 418 0 l 351 0 b 286 46 319 0 301 13 l 29 596 "},"w":{"ha":1172,"x_min":0,"x_max":0,"o":"m 33 603 b 89 717 14 647 40 700 b 203 664 133 733 185 710 l 351 279 l 499 664 b 586 722 513 701 550 721 b 674 664 622 724 658 701 l 822 279 l 969 664 b 1083 717 988 710 1039 733 b 1139 603 1132 700 1158 647 l 904 46 b 839 0 890 13 871 0 l 804 0 b 739 46 772 0 753 13 l 586 419 l 433 46 b 368 0 419 13 400 0 l 333 0 b 268 46 301 0 282 13 l 33 603 "},"x":{"ha":715,"x_min":0,"x_max":0,"o":"m 51 579 b 64 701 21 615 26 669 b 186 692 100 732 156 728 l 358 488 l 529 692 b 651 701 560 728 615 732 b 664 579 689 669 694 615 l 472 351 l 663 124 b 653 1 694 86 689 32 b 529 11 615 -31 561 -26 l 358 215 l 186 11 b 63 1 154 -26 100 -31 b 53 124 26 32 21 86 l 243 351 l 51 579 "},"y":{"ha":738,"x_min":0,"x_max":0,"o":"m 29 596 b 74 714 8 640 28 693 b 192 671 117 735 171 715 l 369 276 l 546 671 b 664 714 565 715 621 735 b 708 596 710 693 729 640 l 439 11 b 133 -279 360 -160 319 -279 l 92 -279 b 14 -201 49 -279 14 -244 b 92 -124 14 -158 49 -124 l 133 -124 b 260 15 204 -124 221 -75 l 279 60 l 29 596 "},"ý":{"ha":738,"x_min":0,"x_max":0,"o":"m 29 596 b 74 714 8 640 28 693 b 192 671 117 735 171 715 l 369 276 l 546 671 b 664 714 565 715 621 735 b 708 596 710 693 729 640 l 439 11 b 133 -279 360 -160 319 -279 l 92 -279 b 14 -201 49 -279 14 -244 b 92 -124 14 -158 49 -124 l 133 -124 b 260 15 204 -124 221 -75 l 279 60 l 29 596 m 271 814 b 374 796 294 782 340 774 l 533 908 b 551 1011 565 931 574 978 b 449 1029 528 1043 482 1051 l 289 917 b 271 814 256 894 249 847 "},"ÿ":{"ha":738,"x_min":0,"x_max":0,"o":"m 29 596 b 74 714 8 640 28 693 b 192 671 117 735 171 715 l 369 276 l 546 671 b 664 714 565 715 621 735 b 708 596 710 693 729 640 l 439 11 b 133 -279 360 -160 319 -279 l 92 -279 b 14 -201 49 -279 14 -244 b 92 -124 14 -158 49 -124 l 133 -124 b 260 15 204 -124 221 -75 l 279 60 l 29 596 m 140 894 b 236 990 140 949 182 990 b 332 894 290 990 332 949 b 236 800 332 842 290 800 b 140 894 182 800 140 842 m 408 894 b 504 990 408 949 450 990 b 599 894 557 990 599 949 b 504 800 599 842 557 800 b 408 894 450 800 408 842 "},"z":{"ha":710,"x_min":0,"x_max":0,"o":"m 35 639 b 113 717 35 682 69 717 l 592 717 b 643 574 679 717 700 640 l 307 156 l 597 156 b 675 78 640 156 675 121 b 597 0 675 35 640 0 l 118 0 b 67 143 31 0 10 76 l 403 561 l 113 561 b 35 639 69 561 35 596 "},"ž":{"ha":710,"x_min":0,"x_max":0,"o":"m 35 639 b 113 717 35 682 69 717 l 592 717 b 643 574 679 717 700 640 l 307 156 l 597 156 b 675 78 640 156 675 121 b 597 0 675 35 640 0 l 118 0 b 67 143 31 0 10 76 l 403 561 l 113 561 b 35 639 69 561 35 596 m 136 1011 b 239 1029 160 1043 206 1053 l 356 947 l 472 1029 b 575 1011 506 1051 551 1043 b 557 908 597 978 590 931 l 397 796 b 356 783 385 788 369 783 b 314 796 342 783 326 788 l 154 908 b 136 1011 121 932 114 978 "},"ﬁ":{"ha":956,"x_min":0,"x_max":0,"o":"m 160 738 b 424 972 160 876 256 972 l 507 972 b 585 894 550 972 585 938 b 507 817 585 851 550 817 l 424 817 b 339 733 368 817 339 782 l 339 717 l 490 717 b 568 639 533 717 568 682 b 490 561 568 596 533 561 l 339 561 l 339 26 b 313 0 339 13 326 0 l 186 0 b 160 26 172 0 160 13 l 160 561 l 106 561 b 28 639 63 561 28 596 b 106 717 28 682 63 717 l 160 717 l 160 738 m 675 910 b 785 1018 675 969 724 1018 b 893 910 844 1018 893 969 b 785 801 893 850 844 801 b 675 910 724 801 675 850 m 694 633 b 785 722 694 682 735 722 b 874 633 833 722 874 682 l 874 26 b 847 0 874 13 861 0 l 721 0 b 694 26 707 0 694 13 "},"ﬂ":{"ha":919,"x_min":0,"x_max":0,"o":"m 160 738 b 424 972 160 876 256 972 l 507 972 b 585 894 550 972 585 938 b 507 817 585 851 550 817 l 424 817 b 339 733 368 817 339 782 l 339 717 l 490 717 b 568 639 533 717 568 682 b 490 561 568 596 533 561 l 339 561 l 339 26 b 313 0 339 13 326 0 l 186 0 b 160 26 172 0 160 13 l 160 561 l 106 561 b 28 639 63 561 28 596 b 106 717 28 682 63 717 l 160 717 l 160 738 m 676 911 b 767 1000 676 960 717 1000 b 856 911 815 1000 856 960 l 856 26 b 829 0 856 13 843 0 l 703 0 b 676 26 689 0 676 13 "},"ª":{"ha":558,"x_min":0,"x_max":0,"o":"m 365 768 b 276 867 365 829 331 867 b 185 768 219 867 185 829 b 276 669 185 707 219 669 b 365 768 331 669 365 707 m 56 768 b 243 989 56 896 133 989 b 365 940 292 989 335 972 b 429 989 372 968 397 989 b 494 924 465 989 494 960 l 494 589 b 464 557 494 571 481 557 l 394 557 b 363 589 376 557 363 571 l 363 597 b 256 547 332 556 296 547 b 56 768 139 547 56 640 "},"º":{"ha":550,"x_min":0,"x_max":0,"o":"m 274 546 b 56 768 146 546 56 638 b 274 989 56 897 146 989 b 494 768 403 989 494 897 b 274 546 494 638 403 546 m 185 768 b 274 668 185 706 219 668 b 365 768 331 668 365 706 b 274 867 365 829 331 867 b 185 768 219 867 185 829 "},"Ω":{"ha":1124,"x_min":0,"x_max":0,"o":"m 561 179 b 878 500 747 179 878 311 b 561 819 878 688 747 819 b 246 500 376 819 246 688 b 561 179 246 311 376 179 m 58 526 b 561 994 58 800 265 994 b 1065 526 857 994 1065 800 b 913 178 1065 382 1008 261 l 957 178 b 1044 90 1007 178 1044 139 b 957 0 1044 39 1007 0 l 167 0 b 78 90 119 0 78 39 b 167 178 78 139 119 178 l 210 178 b 58 526 114 261 58 382 "},"π":{"ha":929,"x_min":0,"x_max":0,"o":"m 106 561 b 28 639 63 561 28 596 b 106 717 28 682 63 717 l 824 717 b 901 639 867 717 901 682 b 824 561 901 596 867 561 l 769 561 l 769 26 b 743 0 769 13 757 0 l 617 0 b 590 26 603 0 590 13 l 590 561 l 339 561 l 339 26 b 313 0 339 13 326 0 l 186 0 b 160 26 172 0 160 13 l 160 561 l 106 561 "},"⁄":{"ha":338,"x_min":0,"x_max":0,"o":"m 419 883 b 519 892 443 914 488 917 b 529 792 550 867 554 822 l -82 65 b -183 57 -106 35 -151 32 b -192 157 -212 83 -218 128 l 419 883 "},"½":{"ha":1144,"x_min":0,"x_max":0,"o":"m 14 924 b 81 989 14 961 43 989 l 188 989 b 253 924 224 989 253 961 l 253 453 b 221 421 253 435 239 421 l 147 421 b 115 453 129 421 115 435 l 115 858 l 81 858 b 14 924 43 858 14 886 m 742 883 b 842 892 765 914 810 917 b 851 792 872 867 876 822 l 240 65 b 139 57 217 35 171 32 b 131 157 110 83 104 128 m 696 65 b 735 140 696 89 708 114 l 917 326 b 957 407 947 356 957 378 b 901 451 957 435 938 451 b 835 426 875 451 854 444 b 738 397 806 400 774 379 b 731 513 703 415 692 471 b 901 581 775 560 843 581 b 1093 404 1013 581 1093 508 b 1003 226 1093 349 1067 292 l 906 132 l 1044 132 b 1108 65 1081 132 1108 103 b 1044 0 1108 29 1081 0 l 761 0 b 696 65 722 0 696 25 "},"¼":{"ha":1094,"x_min":0,"x_max":0,"o":"m 14 924 b 81 989 14 961 43 989 l 188 989 b 253 924 224 989 253 961 l 253 453 b 221 421 253 435 239 421 l 147 421 b 115 453 129 421 115 435 l 115 858 l 81 858 b 14 924 43 858 14 886 m 742 883 b 842 892 765 914 810 917 b 851 792 872 867 876 822 l 240 65 b 139 57 217 35 171 32 b 131 157 110 83 104 128 m 626 193 b 650 256 626 211 639 235 l 803 538 b 903 565 824 576 871 586 b 917 464 938 544 938 501 l 789 236 l 901 236 l 901 299 b 971 367 901 338 932 367 b 1039 299 1008 367 1039 338 l 1039 32 b 1007 0 1039 14 1025 0 l 933 0 b 901 32 915 0 901 14 l 901 128 l 686 128 b 626 193 650 128 626 154 "},"¾":{"ha":1268,"x_min":0,"x_max":0,"o":"m 240 772 b 308 828 285 772 308 793 b 250 872 308 856 288 872 b 176 846 225 872 206 868 b 96 828 161 832 131 810 b 90 944 60 846 49 903 b 250 1001 129 982 194 1001 b 444 828 363 1001 444 929 b 390 714 444 786 422 742 b 454 590 428 683 454 636 b 250 417 454 489 368 417 b 79 483 190 417 122 438 b 85 600 40 526 49 581 b 172 579 121 618 153 597 b 250 546 201 553 224 546 b 318 594 296 546 318 563 b 240 650 318 629 293 650 l 217 650 b 154 711 175 650 154 682 b 217 772 154 740 175 772 l 240 772 m 929 883 b 1029 892 953 914 997 917 b 1039 792 1060 867 1064 822 l 428 65 b 326 57 404 35 358 32 b 318 157 297 83 292 128 m 800 193 b 824 256 800 211 813 235 l 976 538 b 1076 565 997 576 1044 586 b 1090 464 1111 544 1111 501 l 963 236 l 1075 236 l 1075 299 b 1144 367 1075 338 1106 367 b 1213 299 1182 367 1213 338 l 1213 32 b 1181 0 1213 14 1199 0 l 1107 0 b 1075 32 1089 0 1075 14 l 1075 128 l 860 128 b 800 193 824 128 800 154 "},"¹":{"ha":322,"x_min":0,"x_max":0,"o":"m 14 924 b 81 989 14 961 43 989 l 188 989 b 253 924 224 989 253 961 l 253 453 b 221 421 253 435 239 421 l 147 421 b 115 453 129 421 115 435 l 115 858 l 81 858 b 14 924 43 858 14 886 "},"²":{"ha":485,"x_min":0,"x_max":0,"o":"m 297 828 b 242 872 297 856 278 872 b 175 847 215 872 194 865 b 78 818 146 821 114 800 b 71 933 43 836 32 892 b 242 1001 115 981 183 1001 b 433 825 353 1001 433 929 b 343 647 433 769 407 713 l 246 553 l 385 553 b 449 486 421 553 449 524 b 385 421 449 450 421 421 l 101 421 b 36 486 63 421 36 446 b 75 561 36 510 49 535 l 257 747 b 297 828 288 776 297 799 "},"³":{"ha":510,"x_min":0,"x_max":0,"o":"m 240 772 b 308 828 285 772 308 793 b 250 872 308 856 288 872 b 176 846 225 872 206 868 b 96 828 161 832 131 810 b 90 944 60 846 49 903 b 250 1001 129 982 194 1001 b 444 828 363 1001 444 929 b 390 714 444 786 422 742 b 454 590 428 683 454 636 b 250 417 454 489 368 417 b 79 483 190 417 122 438 b 85 600 40 526 49 581 b 172 579 121 618 153 597 b 250 546 201 553 224 546 b 318 594 296 546 318 563 b 240 650 318 629 293 650 l 217 650 b 154 711 175 650 154 682 b 217 772 154 740 175 772 l 240 772 "},"⁴":{"ha":532,"x_min":0,"x_max":0,"o":"m 325 664 l 325 726 b 394 794 325 765 356 794 b 463 726 432 794 463 765 l 463 460 b 431 428 463 442 449 428 l 357 428 b 325 460 339 428 325 442 l 325 556 l 110 556 b 50 621 74 556 50 582 b 74 683 50 639 63 663 l 226 965 b 326 993 247 1004 294 1014 b 340 892 361 972 361 929 l 213 664 "}," ":{"ha":306,"x_min":0,"x_max":0,"o":""},".":{"ha":343,"x_min":0,"x_max":0,"o":"m 63 86 b 172 194 63 146 111 194 b 281 86 232 194 281 146 b 172 -22 281 26 232 -22 b 63 86 111 -22 63 26 "},",":{"ha":343,"x_min":0,"x_max":0,"o":"m 63 86 b 172 194 63 146 111 194 b 281 86 232 194 281 146 b 83 -175 281 -33 206 -153 b 69 -99 38 -183 14 -119 b 138 -18 110 -83 133 -50 b 63 86 94 -3 63 38 "},":":{"ha":343,"x_min":0,"x_max":0,"o":"m 63 86 b 172 194 63 146 111 194 b 281 86 232 194 281 146 b 172 -22 281 26 232 -22 b 63 86 111 -22 63 26 m 63 586 b 172 694 63 646 111 694 b 281 586 232 694 281 646 b 172 478 281 526 232 478 b 63 586 111 478 63 526 "},";":{"ha":343,"x_min":0,"x_max":0,"o":"m 63 586 b 172 694 63 646 111 694 b 281 586 232 694 281 646 b 172 478 281 526 232 478 b 63 586 111 478 63 526 m 63 86 b 172 194 63 146 111 194 b 281 86 232 194 281 146 b 83 -175 281 -33 206 -153 b 69 -99 38 -183 14 -119 b 138 -18 110 -83 133 -50 b 63 86 94 -3 63 38 "},"…":{"ha":1029,"x_min":0,"x_max":0,"o":"m 63 86 b 172 194 63 146 111 194 b 281 86 232 194 281 146 b 172 -22 281 26 232 -22 b 63 86 111 -22 63 26 m 406 86 b 515 194 406 146 454 194 b 624 86 575 194 624 146 b 515 -22 624 26 575 -22 b 406 86 454 -22 406 26 m 749 86 b 858 194 749 146 797 194 b 967 86 918 194 967 146 b 858 -22 967 26 918 -22 b 749 86 797 -22 749 26 "},"!":{"ha":315,"x_min":0,"x_max":0,"o":"m 49 86 b 158 194 49 146 97 194 b 267 86 218 194 267 146 b 158 -22 267 26 218 -22 b 49 86 97 -22 49 26 m 49 881 b 158 989 49 940 97 989 b 267 881 218 989 267 940 l 231 350 b 158 279 228 310 199 279 b 85 350 117 279 88 310 l 49 881 "},"¡":{"ha":315,"x_min":0,"x_max":0,"o":"m 267 881 b 157 772 267 821 218 772 b 49 881 97 772 49 821 b 157 989 49 940 97 989 b 267 881 218 989 267 940 m 85 617 b 157 688 88 657 117 688 b 231 617 199 688 228 657 l 267 86 b 157 -22 267 26 218 -22 b 49 86 97 -22 49 26 "},"?":{"ha":703,"x_min":0,"x_max":0,"o":"m 226 86 b 336 194 226 146 275 194 b 444 86 396 194 444 146 b 336 -22 444 26 396 -22 b 226 86 275 -22 226 26 m 67 882 b 354 994 139 958 253 994 b 661 733 518 994 661 903 b 408 399 661 519 408 519 l 408 350 b 336 279 408 310 376 279 b 263 350 294 279 263 310 l 263 443 b 474 733 263 619 474 599 b 354 819 474 792 417 819 b 211 768 301 819 251 806 b 69 719 161 722 118 694 b 67 882 22 743 8 821 "},"¿":{"ha":703,"x_min":0,"x_max":0,"o":"m 463 886 b 353 778 463 826 414 778 b 244 886 293 778 244 826 b 353 994 244 946 293 994 b 463 886 414 994 463 946 m 28 239 b 281 574 28 453 281 453 l 281 622 b 353 693 281 663 313 693 b 426 622 394 693 426 663 l 426 529 b 215 239 426 353 215 374 b 335 153 215 181 272 153 b 478 204 388 153 438 167 b 619 253 528 250 571 278 b 622 90 667 229 681 151 b 335 -22 550 14 436 -22 b 28 239 171 -22 28 69 "},"·":{"ha":343,"x_min":0,"x_max":0,"o":"m 63 475 b 172 583 63 535 111 583 b 281 475 232 583 281 535 b 172 367 281 415 232 367 b 63 475 111 367 63 415 "},"•":{"ha":485,"x_min":0,"x_max":0,"o":"m 56 475 b 243 661 56 578 139 661 b 429 475 346 661 429 578 b 243 289 429 372 346 289 b 56 475 139 289 56 372 "},"*":{"ha":522,"x_min":0,"x_max":0,"o":"m 200 911 b 261 972 200 944 228 972 b 322 911 296 972 322 944 l 322 833 l 389 872 b 472 850 418 889 456 879 b 450 767 490 819 479 783 l 383 728 l 450 689 b 472 606 479 672 489 635 b 389 583 456 575 418 567 l 322 622 l 322 544 b 261 483 322 511 296 483 b 200 544 228 483 200 511 l 200 622 l 133 583 b 50 606 104 567 67 575 b 72 689 33 635 43 672 l 139 728 l 72 767 b 50 850 43 783 32 819 b 133 872 67 879 104 889 l 200 833 l 200 911 "},"#":{"ha":828,"x_min":0,"x_max":0,"o":"m 106 275 b 28 353 63 275 28 310 b 106 431 28 396 63 431 l 172 431 l 192 543 l 147 543 b 69 621 104 543 69 578 b 147 699 69 664 104 699 l 219 699 l 256 908 b 346 972 263 951 304 979 b 410 882 389 964 417 924 l 378 699 l 525 699 l 561 908 b 651 972 568 951 610 979 b 715 882 694 964 722 924 l 683 699 l 722 699 b 800 621 765 699 800 664 b 722 543 800 578 765 543 l 657 543 l 638 431 l 681 431 b 758 353 724 431 758 396 b 681 275 758 310 724 275 l 610 275 l 574 64 b 483 0 567 21 525 -7 b 419 90 440 8 413 49 l 451 275 l 304 275 l 268 64 b 178 0 261 21 219 -7 b 114 90 135 8 107 49 l 146 275 l 106 275 m 478 431 l 497 543 l 351 543 l 332 431 "},"/":{"ha":601,"x_min":0,"x_max":0,"o":"m 417 921 b 529 972 433 965 483 989 b 582 861 574 956 599 906 l 185 -226 b 72 -278 168 -271 118 -294 b 19 -167 28 -261 3 -211 l 417 921 "},"\\":{"ha":601,"x_min":0,"x_max":0,"o":"m 582 -167 b 529 -278 599 -211 574 -261 b 417 -226 483 -294 433 -271 l 19 861 b 72 972 3 906 28 956 b 185 921 118 989 168 965 l 582 -167 "},"-":{"ha":568,"x_min":0,"x_max":0,"o":"m 106 285 b 28 363 63 285 28 319 b 106 440 28 406 63 440 l 463 440 b 540 363 506 440 540 406 b 463 285 540 319 506 285 l 106 285 "},"–":{"ha":894,"x_min":0,"x_max":0,"o":"m 106 285 b 28 363 63 285 28 319 b 106 440 28 406 63 440 l 789 440 b 867 363 832 440 867 406 b 789 285 867 319 832 285 l 106 285 "},"—":{"ha":1347,"x_min":0,"x_max":0,"o":"m 106 285 b 28 363 63 285 28 319 b 106 440 28 406 63 440 l 1242 440 b 1319 363 1285 440 1319 406 b 1242 285 1319 319 1285 285 l 106 285 "},"_":{"ha":551,"x_min":0,"x_max":0,"o":"m 0 -278 b -78 -200 -43 -278 -78 -243 b 0 -122 -78 -157 -43 -122 l 551 -122 b 629 -200 594 -122 629 -157 b 551 -278 629 -243 594 -278 l 0 -278 "},"(":{"ha":400,"x_min":0,"x_max":0,"o":"m 217 921 b 329 972 244 964 283 989 b 369 840 374 956 407 900 b 225 347 296 725 225 547 b 369 -146 225 147 296 -31 b 329 -278 407 -206 374 -261 b 217 -226 283 -294 244 -269 b 42 347 92 -33 42 161 b 217 921 42 535 92 728 "},")":{"ha":400,"x_min":0,"x_max":0,"o":"m 183 921 b 358 347 308 728 358 535 b 183 -226 358 161 308 -33 b 71 -278 156 -269 117 -294 b 31 -146 26 -261 -7 -206 b 175 347 104 -31 175 147 b 31 840 175 547 104 725 b 71 972 -7 900 26 956 b 183 921 117 989 156 964 "},"{":{"ha":524,"x_min":0,"x_max":0,"o":"m 78 694 b 356 972 78 875 175 972 l 390 972 b 478 882 439 972 478 933 b 390 794 478 833 439 794 l 375 794 b 264 683 303 794 264 756 l 264 40 b 375 -71 264 -32 303 -71 l 390 -71 b 478 -158 439 -71 478 -110 b 390 -249 478 -210 439 -249 l 356 -249 b 78 29 175 -249 78 -151 l 78 694 "},"}":{"ha":524,"x_min":0,"x_max":0,"o":"m 446 29 b 168 -249 446 -151 349 -249 l 133 -249 b 46 -158 85 -249 46 -210 b 133 -71 46 -110 85 -71 l 149 -71 b 260 40 221 -71 260 -32 l 260 683 b 149 794 260 756 221 794 l 133 794 b 46 882 85 794 46 833 b 133 972 46 933 85 972 l 168 972 b 446 694 349 972 446 875 l 446 29 "},"[":{"ha":524,"x_min":0,"x_max":0,"o":"m 76 899 b 150 972 76 939 110 972 l 390 972 b 478 882 439 972 478 933 b 390 794 478 833 439 794 l 264 794 l 264 -71 l 390 -71 b 478 -158 439 -71 478 -110 b 390 -249 478 -210 439 -249 l 150 -249 b 76 -175 110 -249 76 -215 l 76 899 "},"]":{"ha":524,"x_min":0,"x_max":0,"o":"m 447 -175 b 374 -249 447 -215 414 -249 l 133 -249 b 46 -158 85 -249 46 -210 b 133 -71 46 -110 85 -71 l 260 -71 l 260 794 l 133 794 b 46 882 85 794 46 833 b 133 972 46 933 85 972 l 374 972 b 447 899 414 972 447 939 l 447 -175 "},"‚":{"ha":343,"x_min":0,"x_max":0,"o":"m 63 86 b 172 194 63 146 111 194 b 281 86 232 194 281 146 b 83 -175 281 -33 206 -153 b 69 -99 38 -183 14 -119 b 138 -18 110 -83 133 -50 b 63 86 94 -3 63 38 "},"„":{"ha":617,"x_min":0,"x_max":0,"o":"m 63 86 b 172 194 63 146 111 194 b 281 86 232 194 281 146 b 83 -175 281 -33 206 -153 b 69 -99 38 -183 14 -119 b 138 -18 110 -83 133 -50 b 63 86 94 -3 63 38 m 336 86 b 446 194 336 146 385 194 b 554 86 506 194 554 146 b 357 -175 554 -33 479 -153 b 343 -99 311 -183 288 -119 b 411 -18 383 -83 407 -50 b 336 86 368 -3 336 38 "},"“":{"ha":617,"x_min":0,"x_max":0,"o":"m 554 735 b 444 626 554 675 506 626 b 336 735 385 626 336 675 b 533 996 336 854 411 974 b 547 919 579 1004 603 940 b 479 839 507 904 483 871 b 554 735 522 824 554 783 m 63 735 b 260 996 63 854 138 974 b 274 919 306 1004 329 940 b 206 839 233 904 210 871 b 281 735 249 824 281 783 b 171 626 281 675 232 626 b 63 735 111 626 63 675 "},"”":{"ha":617,"x_min":0,"x_max":0,"o":"m 63 889 b 172 997 63 949 111 997 b 281 889 232 997 281 949 b 83 628 281 769 206 650 b 69 704 38 619 14 683 b 138 785 110 719 133 753 b 63 889 94 800 63 840 m 336 889 b 446 997 336 949 385 997 b 554 889 506 997 554 949 b 357 628 554 769 479 650 b 343 704 311 619 288 683 b 411 785 383 719 407 753 b 336 889 368 800 336 840 "},"‘":{"ha":343,"x_min":0,"x_max":0,"o":"m 281 735 b 171 626 281 675 232 626 b 63 735 111 626 63 675 b 260 996 63 854 138 974 b 274 919 306 1004 329 940 b 206 839 233 904 210 871 b 281 735 249 824 281 783 "},"’":{"ha":343,"x_min":0,"x_max":0,"o":"m 63 889 b 172 997 63 949 111 997 b 281 889 232 997 281 949 b 83 628 281 769 206 650 b 69 704 38 619 14 683 b 138 785 110 719 133 753 b 63 889 94 800 63 840 "},"«":{"ha":774,"x_min":0,"x_max":0,"o":"m 260 779 b 368 789 286 811 335 817 b 378 679 401 761 406 711 l 215 486 l 378 293 b 368 183 406 261 401 211 b 260 193 335 156 286 161 l 65 424 b 65 549 33 461 33 511 l 260 779 m 401 424 b 401 549 369 461 369 511 l 596 779 b 704 789 622 811 671 817 b 714 679 738 761 742 711 l 551 486 l 714 293 b 704 183 742 261 738 211 b 596 193 671 156 622 161 l 401 424 "},"»":{"ha":774,"x_min":0,"x_max":0,"o":"m 708 549 b 708 424 740 511 740 461 l 514 193 b 406 183 488 161 439 156 b 396 293 372 211 368 261 l 558 486 l 396 679 b 406 789 368 711 372 761 b 514 779 439 817 488 811 l 708 549 m 222 486 l 60 679 b 69 789 32 711 36 761 b 178 779 103 817 151 811 l 372 549 b 372 424 404 511 404 461 l 178 193 b 69 183 151 161 103 156 b 60 293 36 211 32 261 "},"‹":{"ha":438,"x_min":0,"x_max":0,"o":"m 260 779 b 368 789 286 811 335 817 b 378 679 401 761 406 711 l 215 486 l 378 293 b 368 183 406 261 401 211 b 260 193 335 156 286 161 l 65 424 b 65 549 33 461 33 511 l 260 779 "},"›":{"ha":438,"x_min":0,"x_max":0,"o":"m 372 549 b 372 424 404 511 404 461 l 178 193 b 69 183 151 161 103 156 b 60 293 36 211 32 261 l 222 486 l 60 679 b 69 789 32 711 36 761 b 178 779 103 817 151 811 l 372 549 "},"\"":{"ha":549,"x_min":0,"x_max":0,"o":"m 64 915 b 150 1000 64 961 103 1000 b 235 915 196 1000 235 961 l 235 679 b 210 654 235 665 222 654 l 89 654 b 64 679 76 654 64 665 l 64 915 m 314 915 b 400 1000 314 961 353 1000 b 485 915 446 1000 485 961 l 485 679 b 460 654 485 665 472 654 l 339 654 b 314 679 326 654 314 665 "},"'":{"ha":299,"x_min":0,"x_max":0,"o":"m 64 915 b 150 1000 64 961 103 1000 b 235 915 196 1000 235 961 l 235 679 b 210 654 235 665 222 654 l 89 654 b 64 679 76 654 64 665 l 64 915 "},"ƒ":{"ha":726,"x_min":0,"x_max":0,"o":"m 315 738 b 579 972 339 876 411 972 l 621 972 b 699 894 664 972 699 938 b 621 817 699 851 664 817 l 579 817 b 494 733 524 817 503 782 l 492 717 l 604 717 b 682 639 647 717 682 682 b 604 561 682 596 647 561 l 465 561 l 411 238 b 147 3 388 99 315 3 l 106 3 b 28 81 63 3 28 38 b 106 158 28 124 63 158 l 147 158 b 232 242 203 158 224 193 l 286 561 l 219 561 b 142 639 176 561 142 596 b 219 717 142 682 176 717 l 311 717 l 315 738 "},"@":{"ha":1132,"x_min":0,"x_max":0,"o":"m 722 242 b 678 286 694 242 678 258 l 678 292 b 521 229 638 251 583 229 b 286 488 383 229 286 336 b 521 746 286 639 383 746 b 678 683 583 746 638 724 l 678 685 b 739 746 678 718 706 746 b 803 685 774 746 803 718 l 803 350 l 821 350 b 947 543 886 350 947 411 b 565 872 947 736 789 872 b 185 488 342 872 185 714 b 565 101 185 261 342 101 b 726 133 624 101 679 113 b 839 126 783 158 818 163 b 789 25 860 90 844 51 b 565 -21 722 -4 647 -21 b 63 488 269 -21 63 189 b 565 994 63 785 269 994 b 1069 543 861 994 1069 808 b 808 242 1069 347 961 242 l 722 242 m 408 488 b 546 342 408 401 465 342 b 681 488 624 342 681 401 b 546 633 681 574 624 633 b 408 488 465 633 408 574 "},"&":{"ha":883,"x_min":0,"x_max":0,"o":"m 765 578 b 849 497 821 578 849 538 b 765 415 849 456 821 415 l 761 415 l 761 193 b 722 104 761 165 750 133 b 403 -8 646 24 515 -8 b 38 283 164 -8 38 124 b 204 500 38 369 89 458 b 68 708 108 547 68 624 b 407 994 68 865 182 994 b 676 899 501 994 611 963 b 674 736 736 839 721 760 b 557 765 625 711 586 743 b 407 819 500 810 453 819 b 256 708 296 819 256 767 b 438 578 256 615 331 578 l 765 578 m 225 283 b 403 167 225 222 276 167 b 574 215 460 167 514 178 l 574 415 l 438 415 b 225 283 324 415 225 375 "},"¶":{"ha":1026,"x_min":0,"x_max":0,"o":"m 660 -250 b 632 -278 660 -265 647 -278 l 500 -278 b 472 -250 485 -278 472 -265 l 472 301 l 406 301 b 58 638 174 301 58 469 b 406 972 58 804 174 972 l 565 972 b 660 879 618 972 660 931 l 660 -250 m 244 638 b 413 479 244 558 300 479 l 472 479 l 472 794 l 413 794 b 244 638 300 794 244 715 m 763 879 b 856 972 763 931 804 972 b 950 879 908 972 950 931 l 950 -250 b 922 -278 950 -265 938 -278 l 790 -278 b 763 -250 775 -278 763 -265 "},"§":{"ha":715,"x_min":0,"x_max":0,"o":"m 336 994 b 532 947 408 994 476 982 b 582 865 567 925 582 894 b 507 789 582 825 551 789 b 447 807 489 789 468 796 b 336 833 411 825 376 833 b 271 781 296 833 271 813 b 669 435 271 683 669 704 b 564 269 669 360 631 303 b 621 140 599 236 621 196 b 379 -78 621 7 529 -78 b 183 -31 307 -78 239 -65 b 133 51 149 -8 133 22 b 208 128 133 92 164 128 b 268 110 226 128 247 121 b 379 83 304 92 339 83 b 444 136 419 83 444 104 b 46 478 444 229 46 219 b 150 649 46 557 85 615 b 94 776 117 681 94 721 b 336 994 94 910 186 994 m 222 486 b 411 354 222 422 315 393 b 493 431 465 360 493 396 b 304 563 493 494 400 524 b 222 486 250 557 222 521 "},"©":{"ha":1124,"x_min":0,"x_max":0,"o":"m 561 -21 b 58 488 265 -21 58 189 b 561 994 58 785 265 994 b 1065 488 857 994 1065 785 b 561 -21 1065 189 857 -21 m 194 488 b 561 100 194 260 346 100 b 929 488 778 100 929 260 b 561 874 929 714 778 874 b 194 488 346 874 194 714 m 339 488 b 576 728 339 628 436 728 b 726 679 636 728 688 710 b 739 601 758 654 758 617 b 669 614 718 586 693 594 b 576 644 644 633 613 644 b 428 488 489 644 428 579 b 576 331 428 396 489 331 b 669 361 613 331 644 342 b 739 374 693 381 718 389 b 726 296 758 358 758 321 b 576 247 688 265 636 247 b 339 488 436 247 339 347 "},"®":{"ha":1124,"x_min":0,"x_max":0,"o":"m 561 -21 b 58 488 265 -21 58 189 b 561 994 58 785 265 994 b 1065 488 857 994 1065 785 b 561 -21 1065 189 857 -21 m 194 488 b 561 100 194 260 346 100 b 929 488 778 100 929 260 b 561 874 929 714 778 874 b 194 488 346 874 194 714 m 400 672 b 444 717 400 697 419 717 l 597 717 b 747 572 697 717 747 644 b 671 443 747 519 722 468 l 740 321 b 725 261 753 300 746 274 b 664 276 703 249 676 256 l 578 426 l 489 426 l 489 269 b 475 257 489 263 483 257 l 413 257 b 400 269 406 257 400 263 m 594 510 b 658 572 638 510 658 540 b 594 633 658 601 638 633 l 489 633 l 489 510 "},"™":{"ha":1040,"x_min":0,"x_max":0,"o":"m 283 868 l 283 508 b 253 478 283 490 269 478 l 188 478 b 157 508 171 478 157 490 l 157 868 l 71 868 b 11 929 38 868 11 894 b 71 989 11 963 38 989 l 369 989 b 429 929 403 989 429 963 b 369 868 429 894 403 868 m 492 928 b 558 989 493 961 519 989 b 629 940 596 989 621 964 l 729 679 l 829 940 b 900 989 838 963 861 989 b 967 928 939 989 963 960 l 1004 510 b 975 478 1004 492 992 478 l 910 478 b 878 507 894 478 881 489 l 863 713 l 790 517 b 729 476 782 494 774 476 b 669 517 688 476 676 493 l 594 714 l 581 507 b 549 478 578 489 564 478 l 483 478 b 454 510 467 478 454 492 "},"°":{"ha":597,"x_min":0,"x_max":0,"o":"m 63 763 b 297 997 63 894 165 997 b 535 763 432 997 535 894 b 297 529 535 632 432 529 b 63 763 165 529 63 632 m 188 763 b 297 656 188 703 236 656 b 411 763 360 656 411 703 b 297 871 411 826 360 871 b 188 763 236 871 188 826 "},"|":{"ha":300,"x_min":0,"x_max":0,"o":"m 150 -249 b 224 -175 190 -249 224 -215 l 224 899 b 150 972 224 939 190 972 b 76 899 110 972 76 939 l 76 -175 b 150 -249 76 -215 110 -249 "},"¦":{"ha":300,"x_min":0,"x_max":0,"o":"m 150 417 b 224 490 190 417 224 450 l 224 899 b 150 972 224 939 190 972 b 76 899 110 972 76 939 l 76 490 b 150 417 76 450 110 417 m 76 -175 b 150 -249 76 -215 110 -249 b 224 -175 190 -249 224 -215 l 224 233 b 150 307 224 274 190 307 b 76 233 110 307 76 274 l 76 -175 "},"†":{"ha":703,"x_min":0,"x_max":0,"o":"m 106 572 b 28 650 63 572 28 607 b 106 728 28 693 63 728 l 274 728 l 274 894 b 351 972 274 938 308 972 b 429 894 394 972 429 938 l 429 728 l 597 728 b 675 650 640 728 675 693 b 597 572 675 607 640 572 l 429 572 l 429 -200 b 351 -278 429 -243 394 -278 b 274 -200 308 -278 274 -243 l 274 572 l 106 572 "},"‡":{"ha":703,"x_min":0,"x_max":0,"o":"m 106 572 b 28 650 63 572 28 607 b 106 728 28 693 63 728 l 274 728 l 274 894 b 351 972 274 938 308 972 b 429 894 394 972 429 938 l 429 728 l 597 728 b 675 650 640 728 675 693 b 597 572 675 607 640 572 l 429 572 l 429 353 l 597 353 b 675 275 640 353 675 318 b 597 197 675 232 640 197 l 429 197 l 429 -200 b 351 -278 429 -243 394 -278 b 274 -200 308 -278 274 -243 l 274 197 l 106 197 b 28 275 63 197 28 232 b 106 353 28 318 63 353 l 274 353 l 274 572 l 106 572 "},"¢":{"ha":703,"x_min":0,"x_max":0,"o":"m 56 353 b 411 724 56 565 203 718 l 421 833 b 468 876 424 860 444 879 b 508 826 493 875 511 851 l 499 719 b 629 676 546 713 590 700 b 682 594 665 654 682 624 b 603 518 682 554 650 518 b 540 536 585 518 563 524 b 485 557 522 546 504 553 l 449 143 b 540 169 482 146 513 153 b 603 188 563 182 585 188 b 682 111 650 188 682 151 b 629 29 682 82 665 51 b 435 -18 574 -6 506 -17 l 425 -121 b 378 -164 422 -147 401 -167 b 338 -114 353 -162 335 -139 l 347 -11 b 56 353 172 21 56 163 m 231 353 b 361 153 231 254 282 179 l 397 561 b 231 353 299 549 231 467 "},"$":{"ha":833,"x_min":0,"x_max":0,"o":"m 417 1101 b 464 1144 418 1128 440 1147 b 504 1094 489 1143 507 1119 l 494 989 b 688 914 567 979 635 954 b 713 751 754 863 754 782 b 565 778 668 718 617 736 b 479 814 542 796 511 807 l 458 572 b 775 283 604 535 775 489 b 414 -22 775 131 656 -22 l 407 -22 l 397 -129 b 350 -172 396 -156 374 -175 b 310 -122 325 -171 307 -147 l 319 -14 b 90 86 232 0 156 36 b 65 249 24 138 24 218 b 213 222 110 282 161 264 b 335 163 249 194 289 174 l 357 414 b 64 704 217 447 64 500 b 407 994 64 849 171 992 l 417 1101 m 251 704 b 372 596 251 646 303 617 l 392 818 b 251 704 293 811 251 758 m 422 153 b 588 283 533 156 588 219 b 443 393 588 347 525 372 l 422 153 "},"€":{"ha":1010,"x_min":0,"x_max":0,"o":"m 94 306 b 28 372 58 306 28 335 b 94 439 28 408 58 439 l 158 439 b 157 488 157 454 157 471 b 158 535 157 504 157 519 l 94 535 b 28 601 58 535 28 565 b 94 668 28 639 58 668 l 183 668 b 618 994 243 867 406 994 b 936 892 743 994 851 957 b 961 729 1003 840 1003 760 b 814 756 917 696 865 714 b 618 819 761 796 694 819 b 383 668 514 819 431 761 l 658 668 b 725 601 694 668 725 639 b 658 535 725 565 694 535 l 347 535 b 344 488 346 519 344 504 b 347 439 344 471 346 454 l 658 439 b 725 372 694 439 725 408 b 658 306 725 335 694 306 l 385 306 b 618 156 431 213 515 156 b 814 219 694 156 761 179 b 961 246 865 261 917 279 b 936 83 1003 215 1003 135 b 618 -19 851 18 743 -19 b 183 306 407 -19 244 108 l 94 306 "},"£":{"ha":817,"x_min":0,"x_max":0,"o":"m 482 819 b 342 640 396 819 342 754 l 342 533 l 546 533 b 624 456 589 533 624 499 b 546 378 624 413 589 378 l 342 378 l 342 168 l 701 168 b 789 85 757 168 789 139 b 701 0 789 31 757 0 l 228 0 b 154 74 188 0 154 33 l 154 378 l 106 378 b 28 456 63 378 28 413 b 106 533 28 499 63 533 l 154 533 l 154 642 b 482 994 154 858 281 994 b 728 919 579 994 663 969 b 753 757 794 868 794 788 b 606 783 708 724 657 742 b 482 819 572 808 531 819 "},"¥":{"ha":857,"x_min":0,"x_max":0,"o":"m 51 831 b 75 961 21 874 32 932 b 204 939 117 992 174 982 l 429 619 l 653 939 b 782 961 683 982 740 992 b 806 831 825 932 836 874 l 592 526 l 671 526 b 749 449 714 526 749 492 b 671 371 749 406 714 371 l 522 371 l 522 258 l 671 258 b 749 181 714 258 749 224 b 671 103 749 138 714 103 l 522 103 l 522 28 b 494 0 522 13 510 0 l 363 0 b 335 28 347 0 335 13 l 335 103 l 179 103 b 101 181 136 103 101 138 b 179 258 101 224 136 258 l 335 258 l 335 371 l 179 371 b 101 449 136 371 101 406 b 179 526 101 492 136 526 l 265 526 l 51 831 "},"+":{"ha":703,"x_min":0,"x_max":0,"o":"m 106 410 b 28 488 63 410 28 444 b 106 565 28 531 63 565 l 274 565 l 274 732 b 351 810 274 775 308 810 b 429 732 394 810 429 775 l 429 565 l 597 565 b 675 488 640 565 675 531 b 597 410 675 444 640 410 l 429 410 l 429 240 b 351 163 429 197 394 163 b 274 240 308 163 274 197 l 274 410 l 106 410 "},"−":{"ha":703,"x_min":0,"x_max":0,"o":"m 106 410 b 28 488 63 410 28 444 b 106 565 28 531 63 565 l 597 565 b 675 488 640 565 675 531 b 597 410 675 444 640 410 l 106 410 "},"×":{"ha":703,"x_min":0,"x_max":0,"o":"m 124 606 b 124 717 93 636 93 686 b 233 717 154 747 203 747 l 353 597 l 471 715 b 581 715 500 746 550 746 b 581 606 611 685 611 636 l 463 488 l 581 368 b 581 258 611 338 611 289 b 471 258 551 228 501 228 l 353 378 l 232 257 b 122 257 203 228 153 228 b 122 368 92 288 92 338 l 243 488 l 124 606 "},"÷":{"ha":703,"x_min":0,"x_max":0,"o":"m 106 411 b 28 489 63 411 28 446 b 106 567 28 532 63 567 l 597 567 b 675 489 640 567 675 532 b 597 411 675 446 640 411 l 106 411 m 243 239 b 353 347 243 299 292 347 b 461 239 413 347 461 299 b 353 131 461 179 413 131 b 243 239 292 131 243 179 m 243 739 b 353 847 243 799 292 847 b 461 739 413 847 461 799 b 353 631 461 679 413 631 b 243 739 292 631 243 679 "},"=":{"ha":703,"x_min":0,"x_max":0,"o":"m 106 275 b 28 353 63 275 28 310 b 106 431 28 396 63 431 l 597 431 b 675 353 640 431 675 396 b 597 275 675 310 640 275 l 106 275 m 28 621 b 106 699 28 664 63 699 l 597 699 b 675 621 640 699 675 664 b 597 543 675 578 640 543 l 106 543 b 28 621 63 543 28 578 "},">":{"ha":642,"x_min":0,"x_max":0,"o":"m 164 131 b 56 149 129 106 81 114 b 75 257 31 185 40 232 l 390 478 l 75 699 b 56 807 40 724 31 771 b 164 825 81 842 129 850 l 567 543 b 567 413 613 511 611 444 l 164 131 "},"<":{"ha":642,"x_min":0,"x_max":0,"o":"m 75 413 b 75 543 31 444 29 511 l 478 825 b 586 807 513 850 561 842 b 567 699 611 771 601 724 l 251 478 l 567 257 b 586 149 601 232 611 185 b 478 131 561 114 513 106 l 75 413 "},"~":{"ha":856,"x_min":0,"x_max":0,"o":"m 672 564 b 740 621 678 597 706 621 b 808 539 783 621 817 582 b 596 344 790 428 701 344 b 260 475 442 344 363 475 b 183 408 214 475 192 454 b 115 351 178 375 150 351 b 47 433 72 351 39 390 b 260 628 65 544 154 628 b 596 497 414 628 493 497 b 672 564 642 497 664 518 "},"^":{"ha":833,"x_min":0,"x_max":0,"o":"m 351 932 b 482 932 383 976 450 978 l 764 529 b 746 421 789 494 781 446 b 638 440 710 396 663 406 l 417 756 l 196 440 b 88 421 171 406 124 396 b 69 529 53 446 44 494 l 351 932 "},"%":{"ha":1153,"x_min":0,"x_max":0,"o":"m 811 954 b 918 972 836 989 883 999 b 939 865 954 947 964 900 l 344 17 b 235 0 321 -18 271 -25 b 215 107 201 24 192 72 l 811 954 m 42 746 b 267 972 42 878 135 972 b 492 746 399 972 492 878 b 267 518 492 613 399 518 b 42 746 135 518 42 613 m 163 746 b 267 631 163 678 206 631 b 372 746 328 631 372 678 b 267 860 372 813 328 860 b 163 746 206 860 163 813 m 661 226 b 886 454 661 360 754 454 b 1111 226 1018 454 1111 360 b 886 0 1111 94 1018 0 b 661 226 754 0 661 94 m 781 226 b 886 113 781 160 825 113 b 990 226 947 113 990 160 b 886 342 990 294 947 342 b 781 226 825 342 781 294 "},"‰":{"ha":1664,"x_min":0,"x_max":0,"o":"m 811 954 b 918 972 836 989 883 999 b 939 865 954 947 964 900 l 344 17 b 235 0 321 -18 271 -25 b 215 107 201 24 192 72 l 811 954 m 42 746 b 267 972 42 878 135 972 b 492 746 399 972 492 878 b 267 518 492 613 399 518 b 42 746 135 518 42 613 m 163 746 b 267 631 163 678 206 631 b 372 746 328 631 372 678 b 267 860 372 813 328 860 b 163 746 206 860 163 813 m 661 226 b 886 454 661 360 754 454 b 1111 226 1018 454 1111 360 b 886 0 1111 94 1018 0 b 661 226 754 0 661 94 m 781 226 b 886 113 781 160 825 113 b 990 226 947 113 990 160 b 886 342 990 294 947 342 b 781 226 825 342 781 294 m 1172 226 b 1397 454 1172 360 1265 454 b 1622 226 1529 454 1622 360 b 1397 0 1622 94 1529 0 b 1172 226 1265 0 1172 94 m 1292 226 b 1397 113 1292 160 1336 113 b 1501 226 1458 113 1501 160 b 1397 342 1501 294 1458 342 b 1292 226 1336 342 1292 294 "},"̈":{"ha":0,"x_min":0,"x_max":0,"o":"m 63 894 b 158 990 63 949 104 990 b 254 894 213 990 254 949 b 158 800 254 842 213 800 b 63 894 104 800 63 842 m 331 894 b 426 990 331 949 372 990 b 521 894 479 990 521 949 b 426 800 521 842 479 800 b 331 894 372 800 331 842 "},"̇":{"ha":0,"x_min":0,"x_max":0,"o":"m 63 894 b 158 990 63 949 104 990 b 254 894 213 990 254 949 b 158 800 254 842 213 800 b 63 894 104 800 63 842 "},"̀":{"ha":0,"x_min":0,"x_max":0,"o":"m 318 800 b 300 903 340 833 333 881 l 140 1015 b 38 997 107 1038 61 1029 b 56 894 15 964 24 917 l 215 782 b 318 800 249 760 294 768 "},"́":{"ha":0,"x_min":0,"x_max":0,"o":"m 38 800 b 140 782 61 768 107 760 l 300 894 b 318 997 332 917 340 964 b 215 1015 294 1029 249 1038 l 56 903 b 38 800 22 881 15 833 "},"̋":{"ha":0,"x_min":0,"x_max":0,"o":"m 63 785 b 144 792 86 765 124 768 l 243 910 b 235 992 263 933 258 971 b 153 985 211 1011 172 1010 l 56 867 b 63 785 36 842 39 806 m 264 867 b 271 785 243 843 247 806 b 353 792 294 765 332 768 l 451 910 b 443 992 471 933 467 971 b 361 985 419 1011 382 1008 l 264 867 "},"̂":{"ha":0,"x_min":0,"x_max":0,"o":"m 38 814 b 56 917 15 847 22 893 l 215 1029 b 257 1042 228 1038 243 1042 b 299 1029 271 1042 286 1038 l 458 917 b 476 814 492 894 499 847 b 374 796 453 782 407 774 l 257 878 l 140 796 b 38 814 107 772 61 782 "},"̌":{"ha":0,"x_min":0,"x_max":0,"o":"m 38 1011 b 140 1029 61 1043 107 1053 l 257 947 l 374 1029 b 476 1011 407 1051 453 1043 b 458 908 499 978 492 931 l 299 796 b 257 783 286 788 271 783 b 215 796 243 783 228 788 l 56 908 b 38 1011 22 932 15 978 "},"̆":{"ha":0,"x_min":0,"x_max":0,"o":"m 253 933 b 163 992 217 933 179 946 b 94 1046 151 1022 128 1046 b 29 971 53 1046 19 1010 b 253 796 46 871 138 796 b 476 971 368 796 460 871 b 411 1046 486 1010 453 1046 b 343 992 378 1046 354 1022 b 253 933 326 946 289 933 "},"̊":{"ha":0,"x_min":0,"x_max":0,"o":"m 63 942 b 206 1085 63 1022 125 1085 b 350 942 288 1085 350 1022 b 206 800 350 863 288 800 b 63 942 125 800 63 863 m 150 942 b 206 888 150 911 175 888 b 263 942 238 888 263 911 b 206 997 263 974 238 997 b 150 942 175 997 150 974 "},"̃":{"ha":0,"x_min":0,"x_max":0,"o":"m 397 971 b 456 1018 406 997 426 1018 b 511 951 489 1018 518 986 b 358 813 497 872 436 813 b 219 864 300 813 256 842 b 139 900 189 885 165 900 b 100 865 118 900 108 890 b 43 818 89 836 71 818 b -12 885 8 818 -21 850 b 139 1024 0 964 61 1024 b 279 971 197 1024 242 994 b 358 936 310 951 333 936 b 397 971 379 936 389 946 "},"̄":{"ha":0,"x_min":0,"x_max":0,"o":"m 107 871 b 42 938 71 871 42 901 b 107 1004 42 974 71 1004 l 411 1004 b 476 938 447 1004 476 974 b 411 871 476 901 447 871 l 107 871 "},"̧":{"ha":0,"x_min":0,"x_max":0,"o":"m 186 -61 b 353 -200 278 -61 353 -107 b 197 -344 353 -278 299 -344 b 74 -296 156 -344 106 -329 b 82 -203 42 -261 53 -215 b 150 -217 107 -189 131 -200 b 197 -237 169 -235 182 -237 b 242 -200 225 -237 242 -224 b 186 -162 242 -176 219 -162 l 115 -162 b 71 -117 89 -162 71 -140 l 71 0 l 182 0 l 182 -61 l 186 -61 "},"̨":{"ha":0,"x_min":0,"x_max":0,"o":"m 281 0 l 196 -119 b 165 -192 178 -146 165 -167 b 210 -237 165 -221 182 -237 b 257 -217 225 -237 238 -235 b 325 -203 276 -200 300 -189 b 333 -296 354 -215 365 -261 b 210 -344 301 -329 251 -344 b 54 -200 108 -344 54 -278 b 118 -61 54 -146 81 -107 l 169 0 "},"¨":{"ha":583,"x_min":0,"x_max":0,"o":"m 63 894 b 158 990 63 949 104 990 b 254 894 213 990 254 949 b 158 800 254 842 213 800 b 63 894 104 800 63 842 m 331 894 b 426 990 331 949 372 990 b 521 894 479 990 521 949 b 426 800 521 842 479 800 b 331 894 372 800 331 842 "},"˙":{"ha":317,"x_min":0,"x_max":0,"o":"m 63 894 b 158 990 63 949 104 990 b 254 894 213 990 254 949 b 158 800 254 842 213 800 b 63 894 104 800 63 842 "},"`":{"ha":372,"x_min":0,"x_max":0,"o":"m 318 800 b 300 903 340 833 333 881 l 140 1015 b 38 997 107 1038 61 1029 b 56 894 15 964 24 917 l 215 782 b 318 800 249 760 294 768 "},"´":{"ha":356,"x_min":0,"x_max":0,"o":"m 38 800 b 140 782 61 768 107 760 l 300 894 b 318 997 332 917 340 964 b 215 1015 294 1029 249 1038 l 56 903 b 38 800 22 881 15 833 "},"˝":{"ha":507,"x_min":0,"x_max":0,"o":"m 63 785 b 144 792 86 765 124 768 l 243 910 b 235 992 263 933 258 971 b 153 985 211 1011 172 1010 l 56 867 b 63 785 36 842 39 806 m 264 867 b 271 785 243 843 247 806 b 353 792 294 765 332 768 l 451 910 b 443 992 471 933 467 971 b 361 985 419 1011 382 1008 l 264 867 "},"ˆ":{"ha":514,"x_min":0,"x_max":0,"o":"m 38 814 b 56 917 15 847 22 893 l 215 1029 b 257 1042 228 1038 243 1042 b 299 1029 271 1042 286 1038 l 458 917 b 476 814 492 894 499 847 b 374 796 453 782 407 774 l 257 878 l 140 796 b 38 814 107 772 61 782 "},"ˇ":{"ha":514,"x_min":0,"x_max":0,"o":"m 38 1011 b 140 1029 61 1043 107 1053 l 257 947 l 374 1029 b 476 1011 407 1051 453 1043 b 458 908 499 978 492 931 l 299 796 b 257 783 286 788 271 783 b 215 796 243 783 228 788 l 56 908 b 38 1011 22 932 15 978 "},"˘":{"ha":506,"x_min":0,"x_max":0,"o":"m 253 933 b 163 992 217 933 179 946 b 94 1046 151 1022 128 1046 b 29 971 53 1046 19 1010 b 253 796 46 871 138 796 b 476 971 368 796 460 871 b 411 1046 486 1010 453 1046 b 343 992 378 1046 354 1022 b 253 933 326 946 289 933 "},"˚":{"ha":413,"x_min":0,"x_max":0,"o":"m 63 942 b 206 1085 63 1022 125 1085 b 350 942 288 1085 350 1022 b 206 800 350 863 288 800 b 63 942 125 800 63 863 m 150 942 b 206 888 150 911 175 888 b 263 942 238 888 263 911 b 206 997 263 974 238 997 b 150 942 175 997 150 974 "},"˜":{"ha":499,"x_min":0,"x_max":0,"o":"m 394 983 b 451 1031 403 1010 424 1031 b 506 965 485 1031 513 999 b 357 829 493 888 433 829 b 221 879 299 829 256 857 b 140 914 190 899 167 914 b 103 881 121 914 111 906 b 47 833 93 853 74 833 b -7 899 13 833 -15 865 b 140 1035 4 976 64 1035 b 279 983 199 1035 242 1007 b 357 950 308 965 332 950 b 394 983 376 950 386 958 "},"¯":{"ha":518,"x_min":0,"x_max":0,"o":"m 107 871 b 42 938 71 871 42 901 b 107 1004 42 974 71 1004 l 411 1004 b 476 938 447 1004 476 974 b 411 871 476 901 447 871 l 107 871 "},"¸":{"ha":399,"x_min":0,"x_max":0,"o":"m 186 -61 b 353 -200 278 -61 353 -107 b 197 -344 353 -278 299 -344 b 74 -296 156 -344 106 -329 b 82 -203 42 -261 53 -215 b 150 -217 107 -189 131 -200 b 197 -237 169 -235 182 -237 b 242 -200 225 -237 242 -224 b 186 -162 242 -176 219 -162 l 115 -162 b 71 -117 89 -162 71 -140 l 71 0 l 182 0 l 182 -61 l 186 -61 "},"˛":{"ha":357,"x_min":0,"x_max":0,"o":"m 281 0 l 196 -119 b 165 -192 178 -146 165 -167 b 210 -237 165 -221 182 -237 b 257 -217 225 -237 238 -235 b 325 -203 276 -200 300 -189 b 333 -296 354 -215 365 -261 b 210 -344 301 -329 251 -344 b 54 -200 108 -344 54 -278 b 118 -61 54 -146 81 -107 l 169 0 "}}}
